<svg width="30" height="33" viewBox="0 0 30 33" fill="none" xmlns="http://www.w3.org/2000/svg">
<path d="M10.8026 15.6426H6.67342C6.54621 15.6426 6.42417 15.692 6.33424 15.7799L3.08621 18.9553C3.07815 18.9632 3.06901 18.9722 3.04649 18.9631C3.02398 18.9539 3.02398 18.9413 3.02398 18.9302V16.1116C3.02398 15.8526 2.8092 15.6426 2.54428 15.6426H2.02812C1.43879 15.6426 0.959404 15.1739 0.959404 14.5978V1.98275C0.959404 1.40666 1.43885 0.937943 2.02812 0.937943H14.9317C15.521 0.937943 16.0004 1.40666 16.0004 1.98275V10.5609C16.0004 10.8199 16.2152 11.0299 16.4801 11.0299C16.7451 11.0299 16.9598 10.8199 16.9598 10.5609V1.98275C16.9599 0.889482 16.0501 0 14.9318 0H2.02812C0.909835 0 0 0.889482 0 1.98275V14.5978C0 15.691 0.909835 16.5805 2.02812 16.5805H2.06457V18.9301C2.06457 19.3253 2.30583 19.6784 2.6793 19.8296C2.80325 19.8798 2.9329 19.9042 3.06139 19.9042C3.31999 19.9042 3.57359 19.8052 3.76457 19.6186L6.87208 16.5806H10.8026C11.0675 16.5806 11.2823 16.3706 11.2823 16.1116C11.2823 15.8526 11.0676 15.6426 10.8026 15.6426Z" fill="#545454"/>
<path d="M27.3184 12.1105H14.4148C13.2965 12.1105 12.3867 13 12.3867 14.0932V26.7082C12.3867 27.8015 13.2966 28.6909 14.4148 28.6909H22.4745L25.582 31.7289C25.773 31.9156 26.0265 32.0146 26.2852 32.0146C26.4136 32.0146 26.5434 31.9901 26.6673 31.94C27.0407 31.7888 27.282 31.4357 27.282 31.0405V28.6909H27.3184C28.4368 28.6909 29.3466 27.8014 29.3466 26.7081V14.0932C29.3466 12.9999 28.4368 12.1105 27.3184 12.1105ZM28.3872 26.7082C28.3872 27.2843 27.9078 27.753 27.3185 27.753H26.8023C26.5374 27.753 26.3226 27.963 26.3226 28.222V31.0405C26.3226 31.0517 26.3226 31.0644 26.3001 31.0734C26.2777 31.0826 26.2685 31.0736 26.2604 31.0657L23.0124 27.8903C22.9224 27.8023 22.8004 27.7529 22.6732 27.7529H14.4148C13.8255 27.7529 13.3461 27.2842 13.3461 26.7081V14.0932C13.3461 13.5171 13.8256 13.0484 14.4148 13.0484H27.3184C27.9078 13.0484 28.3871 13.5171 28.3871 14.0932V26.7082H28.3872Z" fill="#545454"/>
<path d="M9.11288 3.95581C9.11122 3.95149 9.10949 3.94718 9.1077 3.94293C9.00255 3.69319 8.7563 3.53192 8.48012 3.53192C8.47993 3.53192 8.47967 3.53192 8.47942 3.53192C8.20298 3.53217 7.95673 3.694 7.85203 3.94418C7.85056 3.94768 7.84915 3.95124 7.84775 3.95481L4.55302 12.4122C4.45875 12.6542 4.58296 12.9252 4.83055 13.0173C4.8867 13.0383 4.94446 13.0482 5.00119 13.0482C5.19448 13.0482 5.3767 12.9331 5.44956 12.746L6.15248 10.9417H10.7842L11.0905 11.7354C11.1841 11.9777 11.4607 12.1001 11.7087 12.0086C11.9566 11.9172 12.0817 11.6466 11.9882 11.4043L9.11288 3.95581ZM6.51788 10.0038L8.47897 4.97004L10.4221 10.0038H6.51788Z" fill="#545454"/>
<path d="M23.1526 24.1302C22.6434 24.5194 22.0316 24.7252 21.3834 24.7252C19.798 24.7252 18.5082 23.4642 18.5082 21.9142C18.5082 20.3642 19.798 19.1033 21.3834 19.1033H22.6738C22.9387 19.1033 23.1535 18.8933 23.1535 18.6343C23.1535 18.3753 22.9387 18.1653 22.6738 18.1653C22.6738 18.1653 21.1474 18.1653 21.1254 18.1653C20.5361 18.1653 20.0566 17.6966 20.0566 17.1205C20.0566 16.5444 20.5361 16.0757 21.1254 16.0757C21.429 16.0757 21.7194 16.2027 21.9221 16.4241C22.0988 16.617 22.4021 16.6334 22.5995 16.4606C22.7968 16.2879 22.8136 15.9914 22.6369 15.7984C22.2524 15.3786 21.7014 15.1378 21.1254 15.1378C20.0071 15.1378 19.0972 16.0272 19.0972 17.1205C19.0972 17.677 19.3333 18.1803 19.7122 18.5407C18.4328 19.149 17.5488 20.4325 17.5488 21.9142C17.5488 23.9814 19.269 25.6631 21.3835 25.6631C22.2479 25.6631 23.064 25.3885 23.7436 24.8692C23.9523 24.7096 23.9892 24.4149 23.8261 24.2109C23.6629 24.0068 23.3614 23.9707 23.1526 24.1302Z" fill="#545454"/>
</svg>
