<svg width="20" height="20" viewBox="0 0 20 20" fill="none" xmlns="http://www.w3.org/2000/svg">
<path d="M17.6996 0.0391296L9.83783 2.16858C9.63801 2.2221 9.20419 2.22151 9.00499 2.16561L1.34577 0.0432922C0.662161 -0.144916 0 0.348052 0 1.05182V15.5114C0 16.1078 0.452238 16.6781 1.02789 16.8384L8.68741 18.961C8.8923 19.0178 9.15604 19.0493 9.4296 19.0493C9.6172 19.0493 9.89432 19.0347 10.1492 18.9652L18.0106 16.8357C18.5877 16.6796 19.042 16.1105 19.042 15.5117V1.05182C19.0423 0.348647 18.3802 -0.146105 17.6995 0.0391296H17.6996ZM8.92648 17.7931L1.32702 15.6922C1.26963 15.6764 1.18935 15.5714 1.18935 15.5117V1.23942L8.68741 3.3121C8.75996 3.33232 8.84144 3.34808 8.92648 3.36146V17.7931V17.7931ZM17.853 15.5117C17.853 15.5703 17.7566 15.6725 17.6995 15.6883L10.1159 17.7422V3.32338C10.1269 3.3207 10.1382 3.31922 10.1492 3.31624L17.8527 1.23258V15.5117H17.853L17.853 15.5117ZM11.9371 6.81726C11.9906 6.81726 12.045 6.81044 12.0986 6.79526L16.2601 5.62409C16.5765 5.5346 16.7609 5.20663 16.6719 4.89057C16.583 4.57451 16.2527 4.39106 15.9384 4.47877L11.7768 5.64996C11.4604 5.73946 11.2761 6.06741 11.365 6.38346C11.4387 6.646 11.6775 6.81726 11.9371 6.81726ZM11.9371 10.3852C11.9906 10.3852 12.0451 10.3784 12.0986 10.3632L16.2602 9.19201C16.5766 9.10252 16.7609 8.77455 16.672 8.45849C16.5831 8.14243 16.2527 7.95898 15.9384 8.04669L11.7768 9.21788C11.4605 9.30737 11.2761 9.63532 11.365 9.9511C11.4388 10.2136 11.6775 10.3852 11.9371 10.3852ZM11.9371 13.9531C11.9907 13.9531 12.0451 13.9463 12.0986 13.9311L16.2602 12.7599C16.5766 12.6704 16.7609 12.3425 16.672 12.0264C16.5831 11.7103 16.2528 11.5269 15.9385 11.6146L11.7769 12.7858C11.4605 12.8753 11.2762 13.2032 11.3651 13.5193C11.4388 13.7816 11.6776 13.9531 11.9371 13.9531ZM7.33997 5.64996L3.17842 4.47877C2.86413 4.39106 2.53378 4.57451 2.44485 4.89057C2.35593 5.20663 2.54 5.53458 2.85667 5.62409L7.01829 6.79526C7.07083 6.81001 7.12515 6.81741 7.17972 6.81726C7.4393 6.81726 7.67805 6.64602 7.75179 6.38348C7.8407 6.0677 7.65664 5.73946 7.33997 5.64996ZM7.34001 9.21786L3.17845 8.04667C2.86416 7.95896 2.5338 8.14241 2.44489 8.45847C2.35599 8.77453 2.54004 9.10248 2.85671 9.19199L7.0183 10.3632C7.07085 10.3779 7.12518 10.3853 7.17976 10.3852C7.43934 10.3852 7.67809 10.2139 7.75183 9.95138C7.84073 9.6356 7.65668 9.30735 7.34001 9.21786ZM7.34005 12.7858L3.17849 11.6146C2.8642 11.5269 2.53383 11.7103 2.44493 12.0264C2.35602 12.3424 2.54008 12.6704 2.85675 12.7599L7.01834 13.9311C7.07089 13.9458 7.12522 13.9532 7.1798 13.9531C7.43938 13.9531 7.67812 13.7818 7.75186 13.5193C7.84077 13.2032 7.65672 12.8753 7.34005 12.7858Z" fill="#70A2B7"/>
</svg>
