<svg width="104" height="47" viewBox="0 0 104 47" fill="none" xmlns="http://www.w3.org/2000/svg">
<rect x="1.21222" y="0.737976" width="101.574" height="45.524" rx="22.762" fill="white"/>
<rect x="1.21222" y="0.737976" width="101.574" height="45.524" rx="22.762" stroke="#DCE0E3" stroke-width="1.026"/>
<path d="M75.6838 17.9414C76.4853 17.9414 77.2689 18.1564 77.9353 18.5593C78.6017 18.9622 79.1211 19.5348 79.4279 20.2048C79.7346 20.8748 79.8148 21.612 79.6585 22.3232C79.5021 23.0345 79.1161 23.6878 78.5494 24.2006C77.9826 24.7133 77.2605 25.0625 76.4744 25.204C75.6883 25.3455 74.8735 25.2729 74.133 24.9954C73.3925 24.7179 72.7596 24.2479 72.3143 23.6449C71.869 23.042 71.6313 22.3331 71.6313 21.6079C71.6326 20.6359 72.06 19.704 72.8197 19.0166C73.5794 18.3293 74.6094 17.9426 75.6838 17.9414ZM75.6838 16.1081C74.4816 16.1081 73.3063 16.4307 72.3066 17.035C71.307 17.6393 70.5279 18.4983 70.0678 19.5032C69.6077 20.5082 69.4873 21.614 69.7218 22.6809C69.9564 23.7477 70.5353 24.7277 71.3855 25.4969C72.2356 26.266 73.3187 26.7898 74.4979 27.0021C75.6771 27.2143 76.8993 27.1054 78.0101 26.6891C79.1208 26.2728 80.0702 25.5679 80.7381 24.6635C81.4061 23.759 81.7626 22.6957 81.7626 21.6079C81.7626 20.1493 81.1222 18.7504 79.9822 17.719C78.8422 16.6876 77.296 16.1081 75.6838 16.1081ZM64.9386 13.1822L66.3732 11.8861L69.9242 15.0998L68.4906 16.3959L64.9386 13.1822ZM61.5 20.6913H66.5657V22.5246H61.5V20.6913ZM64.9386 30.0346L68.4906 26.8208L69.9232 28.117L66.3721 31.3307L64.9386 30.0346ZM74.6707 29.8576H76.697V34.4408H74.6707V29.8576ZM81.4455 28.116L82.8781 26.8199L86.4301 30.0336L84.9975 31.3298L81.4455 28.116ZM84.802 20.6913H89.8676V22.5246H84.802V20.6913ZM81.4455 15.0989L84.9975 11.8852L86.4301 13.1813L82.8781 16.395L81.4455 15.0989ZM74.6707 8.77502H76.697V13.3582H74.6707V8.77502Z" fill="#83888A"/>
<g clip-path="url(#clip0_5208_723)">
<rect x="0.699219" y="0.224976" width="45.2509" height="46.2793" rx="22.6255" fill="#70A2B7"/>
<path d="M20.4342 10.4853C21.0032 10.1045 21.5884 9.77904 22.187 9.50491C19.5649 13.8888 19.529 19.5689 22.5605 24.0987C25.592 28.6283 30.8565 30.7598 35.9089 30.0077C35.4271 30.4566 34.9044 30.875 34.3353 31.2559C28.6029 35.0922 20.8361 33.5528 16.9996 27.8205C13.1633 22.0881 14.702 14.3219 20.4342 10.4853Z" stroke="white" stroke-width="1.15236"/>
</g>
<rect x="1.21343" y="0.73919" width="44.2225" height="45.2509" rx="22.1112" stroke="#70A2B7" stroke-width="1.02843"/>
<defs>
<clipPath id="clip0_5208_723">
<rect x="0.699219" y="0.224976" width="45.2509" height="46.2793" rx="22.6255" fill="white"/>
</clipPath>
</defs>
</svg>
