<svg width="102" height="20" viewBox="0 0 102 20" fill="none" xmlns="http://www.w3.org/2000/svg">
<path d="M33.3235 3.54135V4.96335H27.1315V9.47235H32.4235V10.8944H27.1315V16.4384H25.3765V3.54135H33.3235ZM42.0159 16.4384H41.3049C41.1489 16.4384 41.0229 16.4144 40.9269 16.3664C40.8309 16.3184 40.7679 16.2164 40.7379 16.0604L40.5579 15.2144C40.3179 15.4304 40.0839 15.6254 39.8559 15.7994C39.6279 15.9674 39.3879 16.1114 39.1359 16.2314C38.8839 16.3454 38.6139 16.4324 38.3259 16.4924C38.0439 16.5524 37.7289 16.5824 37.3809 16.5824C37.0269 16.5824 36.6939 16.5344 36.3819 16.4384C36.0759 16.3364 35.8089 16.1864 35.5809 15.9884C35.3529 15.7904 35.1699 15.5414 35.0319 15.2414C34.8999 14.9354 34.8339 14.5754 34.8339 14.1614C34.8339 13.8014 34.9329 13.4564 35.1309 13.1264C35.3289 12.7904 35.6469 12.4934 36.0849 12.2354C36.5289 11.9774 37.1079 11.7674 37.8219 11.6054C38.5359 11.4374 39.4089 11.3414 40.4409 11.3174V10.6064C40.4409 9.89835 40.2879 9.36435 39.9819 9.00435C39.6819 8.63835 39.2349 8.45535 38.6409 8.45535C38.2509 8.45535 37.9209 8.50635 37.6509 8.60835C37.3869 8.70435 37.1559 8.81535 36.9579 8.94135C36.7659 9.06135 36.5979 9.17235 36.4539 9.27435C36.3159 9.37035 36.1779 9.41835 36.0399 9.41835C35.9319 9.41835 35.8359 9.39135 35.7519 9.33735C35.6739 9.27735 35.6109 9.20535 35.5629 9.12135L35.2749 8.60835C35.7789 8.12235 36.3219 7.75935 36.9039 7.51935C37.4859 7.27935 38.1309 7.15935 38.8389 7.15935C39.3489 7.15935 39.8019 7.24335 40.1979 7.41135C40.5939 7.57935 40.9269 7.81335 41.1969 8.11335C41.4669 8.41335 41.6709 8.77635 41.8089 9.20235C41.9469 9.62835 42.0159 10.0964 42.0159 10.6064V16.4384ZM37.8579 15.4574C38.1399 15.4574 38.3979 15.4304 38.6319 15.3764C38.8659 15.3164 39.0849 15.2354 39.2889 15.1334C39.4989 15.0254 39.6969 14.8964 39.8829 14.7464C40.0749 14.5964 40.2609 14.4254 40.4409 14.2334V12.3344C39.7029 12.3584 39.0759 12.4184 38.5599 12.5144C38.0439 12.6044 37.6239 12.7244 37.2999 12.8744C36.9759 13.0244 36.7389 13.2014 36.5889 13.4054C36.4449 13.6094 36.3729 13.8374 36.3729 14.0894C36.3729 14.3294 36.4119 14.5364 36.4899 14.7104C36.5679 14.8844 36.6729 15.0284 36.8049 15.1424C36.9369 15.2504 37.0929 15.3314 37.2729 15.3854C37.4529 15.4334 37.6479 15.4574 37.8579 15.4574ZM50.6619 8.94135C50.6139 9.00735 50.5659 9.05835 50.5179 9.09435C50.4699 9.13035 50.4009 9.14835 50.3109 9.14835C50.2209 9.14835 50.1219 9.11235 50.0139 9.04035C49.9119 8.96235 49.7799 8.87835 49.6179 8.78835C49.4559 8.69835 49.2579 8.61735 49.0239 8.54535C48.7959 8.46735 48.5139 8.42835 48.1779 8.42835C47.7339 8.42835 47.3409 8.50935 46.9989 8.67135C46.6569 8.82735 46.3689 9.05535 46.1349 9.35535C45.9069 9.65535 45.7329 10.0184 45.6129 10.4444C45.4989 10.8704 45.4419 11.3474 45.4419 11.8754C45.4419 12.4274 45.5049 12.9194 45.6309 13.3514C45.7569 13.7774 45.9339 14.1374 46.1619 14.4314C46.3899 14.7194 46.6659 14.9414 46.9899 15.0974C47.3199 15.2474 47.6889 15.3224 48.0969 15.3224C48.4869 15.3224 48.8079 15.2774 49.0599 15.1874C49.3119 15.0914 49.5219 14.9864 49.6899 14.8724C49.8579 14.7584 49.9959 14.6564 50.1039 14.5664C50.2119 14.4704 50.3199 14.4224 50.4279 14.4224C50.5659 14.4224 50.6679 14.4734 50.7339 14.5754L51.1839 15.1604C50.7879 15.6464 50.2929 16.0034 49.6989 16.2314C49.1049 16.4534 48.4779 16.5644 47.8179 16.5644C47.2479 16.5644 46.7169 16.4594 46.2249 16.2494C45.7389 16.0394 45.3159 15.7364 44.9559 15.3404C44.5959 14.9384 44.3109 14.4464 44.1009 13.8644C43.8969 13.2824 43.7949 12.6194 43.7949 11.8754C43.7949 11.1974 43.8879 10.5704 44.0739 9.99435C44.2659 9.41835 44.5419 8.92335 44.9019 8.50935C45.2679 8.08935 45.7179 7.76235 46.2519 7.52835C46.7859 7.29435 47.3979 7.17735 48.0879 7.17735C48.7239 7.17735 49.2879 7.28235 49.7799 7.49235C50.2719 7.69635 50.7069 7.98735 51.0849 8.36535L50.6619 8.94135ZM56.4543 7.17735C57.0003 7.17735 57.5043 7.27035 57.9663 7.45635C58.4283 7.63635 58.8273 7.90035 59.1633 8.24835C59.4993 8.59035 59.7603 9.01635 59.9463 9.52635C60.1383 10.0304 60.2343 10.6064 60.2343 11.2544C60.2343 11.5064 60.2073 11.6744 60.1533 11.7584C60.0993 11.8424 59.9973 11.8844 59.8473 11.8844H53.7812C53.7933 12.4604 53.8713 12.9614 54.0153 13.3874C54.1593 13.8134 54.3573 14.1704 54.6093 14.4584C54.8613 14.7404 55.1613 14.9534 55.5093 15.0974C55.8573 15.2354 56.2473 15.3044 56.6793 15.3044C57.0813 15.3044 57.4263 15.2594 57.7143 15.1694C58.0083 15.0734 58.2603 14.9714 58.4703 14.8634C58.6803 14.7554 58.8543 14.6564 58.9923 14.5664C59.1363 14.4704 59.2593 14.4224 59.3613 14.4224C59.4933 14.4224 59.5953 14.4734 59.6673 14.5754L60.1173 15.1604C59.9193 15.4004 59.6823 15.6104 59.4063 15.7904C59.1303 15.9644 58.8333 16.1084 58.5153 16.2224C58.2033 16.3364 57.8793 16.4204 57.5433 16.4744C57.2073 16.5344 56.8743 16.5644 56.5443 16.5644C55.9143 16.5644 55.3323 16.4594 54.7983 16.2494C54.2703 16.0334 53.8113 15.7214 53.4213 15.3134C53.0373 14.8994 52.7373 14.3894 52.5213 13.7834C52.3053 13.1774 52.1973 12.4814 52.1973 11.6954C52.1973 11.0594 52.2933 10.4654 52.4853 9.91335C52.6833 9.36135 52.9653 8.88435 53.3313 8.48235C53.6973 8.07435 54.1443 7.75635 54.6723 7.52835C55.2003 7.29435 55.7943 7.17735 56.4543 7.17735ZM56.4902 8.35635C55.7163 8.35635 55.1073 8.58135 54.6633 9.03135C54.2193 9.47535 53.9433 10.0934 53.8353 10.8854H58.7943C58.7943 10.5134 58.7433 10.1744 58.6413 9.86835C58.5393 9.55635 58.3893 9.28935 58.1913 9.06735C57.9933 8.83935 57.7503 8.66535 57.4623 8.54535C57.1803 8.41935 56.8563 8.35635 56.4902 8.35635ZM62.3387 16.4384V3.18135H63.9497V8.63535C64.3277 8.19735 64.7597 7.84635 65.2457 7.58235C65.7377 7.31235 66.2987 7.17735 66.9287 7.17735C67.4567 7.17735 67.9337 7.27635 68.3597 7.47435C68.7857 7.67235 69.1487 7.96935 69.4487 8.36535C69.7487 8.75535 69.9797 9.24135 70.1417 9.82335C70.3037 10.3994 70.3847 11.0654 70.3847 11.8214C70.3847 12.4934 70.2947 13.1204 70.1147 13.7024C69.9347 14.2784 69.6737 14.7794 69.3317 15.2054C68.9957 15.6254 68.5817 15.9584 68.0897 16.2044C67.6037 16.4444 67.0547 16.5644 66.4427 16.5644C65.8547 16.5644 65.3537 16.4504 64.9397 16.2224C64.5317 15.9944 64.1747 15.6764 63.8687 15.2684L63.7877 16.0964C63.7397 16.3244 63.6017 16.4384 63.3737 16.4384H62.3387ZM66.4067 8.45535C65.8847 8.45535 65.4257 8.57535 65.0297 8.81535C64.6397 9.05535 64.2797 9.39435 63.9497 9.83235V14.2424C64.2377 14.6384 64.5557 14.9174 64.9037 15.0794C65.2577 15.2414 65.6507 15.3224 66.0827 15.3224C66.9347 15.3224 67.5887 15.0194 68.0447 14.4134C68.5007 13.8074 68.7287 12.9434 68.7287 11.8214C68.7287 11.2274 68.6747 10.7174 68.5667 10.2914C68.4647 9.86535 68.3147 9.51735 68.1167 9.24735C67.9187 8.97135 67.6757 8.77035 67.3877 8.64435C67.0997 8.51835 66.7727 8.45535 66.4067 8.45535ZM76.0294 7.17735C76.6954 7.17735 77.2954 7.28835 77.8294 7.51035C78.3694 7.73235 78.8254 8.04735 79.1974 8.45535C79.5754 8.86335 79.8634 9.35835 80.0614 9.94035C80.2654 10.5164 80.3674 11.1614 80.3674 11.8754C80.3674 12.5954 80.2654 13.2434 80.0614 13.8194C79.8634 14.3954 79.5754 14.8874 79.1974 15.2954C78.8254 15.7034 78.3694 16.0184 77.8294 16.2404C77.2954 16.4564 76.6954 16.5644 76.0294 16.5644C75.3634 16.5644 74.7604 16.4564 74.2204 16.2404C73.6864 16.0184 73.2304 15.7034 72.8524 15.2954C72.4744 14.8874 72.1834 14.3954 71.9794 13.8194C71.7754 13.2434 71.6734 12.5954 71.6734 11.8754C71.6734 11.1614 71.7754 10.5164 71.9794 9.94035C72.1834 9.35835 72.4744 8.86335 72.8524 8.45535C73.2304 8.04735 73.6864 7.73235 74.2204 7.51035C74.7604 7.28835 75.3634 7.17735 76.0294 7.17735ZM76.0294 15.3134C76.9294 15.3134 77.6014 15.0134 78.0454 14.4134C78.4894 13.8074 78.7114 12.9644 78.7114 11.8844C78.7114 10.7984 78.4894 9.95235 78.0454 9.34635C77.6014 8.74035 76.9294 8.43735 76.0294 8.43735C75.5734 8.43735 75.1774 8.51535 74.8414 8.67135C74.5054 8.82735 74.2234 9.05235 73.9954 9.34635C73.7734 9.64035 73.6054 10.0034 73.4914 10.4354C73.3834 10.8614 73.3294 11.3444 73.3294 11.8844C73.3294 12.4244 73.3834 12.9074 73.4914 13.3334C73.6054 13.7594 73.7734 14.1194 73.9954 14.4134C74.2234 14.7014 74.5054 14.9234 74.8414 15.0794C75.1774 15.2354 75.5734 15.3134 76.0294 15.3134ZM86.0313 7.17735C86.6973 7.17735 87.2973 7.28835 87.8313 7.51035C88.3713 7.73235 88.8273 8.04735 89.1993 8.45535C89.5773 8.86335 89.8653 9.35835 90.0633 9.94035C90.2673 10.5164 90.3693 11.1614 90.3693 11.8754C90.3693 12.5954 90.2673 13.2434 90.0633 13.8194C89.8653 14.3954 89.5773 14.8874 89.1993 15.2954C88.8273 15.7034 88.3713 16.0184 87.8313 16.2404C87.2973 16.4564 86.6973 16.5644 86.0313 16.5644C85.3653 16.5644 84.7623 16.4564 84.2223 16.2404C83.6883 16.0184 83.2323 15.7034 82.8543 15.2954C82.4763 14.8874 82.1853 14.3954 81.9813 13.8194C81.7773 13.2434 81.6753 12.5954 81.6753 11.8754C81.6753 11.1614 81.7773 10.5164 81.9813 9.94035C82.1853 9.35835 82.4763 8.86335 82.8543 8.45535C83.2323 8.04735 83.6883 7.73235 84.2223 7.51035C84.7623 7.28835 85.3653 7.17735 86.0313 7.17735ZM86.0313 15.3134C86.9313 15.3134 87.6033 15.0134 88.0473 14.4134C88.4913 13.8074 88.7133 12.9644 88.7133 11.8844C88.7133 10.7984 88.4913 9.95235 88.0473 9.34635C87.6033 8.74035 86.9313 8.43735 86.0313 8.43735C85.5753 8.43735 85.1793 8.51535 84.8433 8.67135C84.5073 8.82735 84.2253 9.05235 83.9973 9.34635C83.7753 9.64035 83.6073 10.0034 83.4933 10.4354C83.3853 10.8614 83.3313 11.3444 83.3313 11.8844C83.3313 12.4244 83.3853 12.9074 83.4933 13.3334C83.6073 13.7594 83.7753 14.1194 83.9973 14.4134C84.2253 14.7014 84.5073 14.9234 84.8433 15.0794C85.1793 15.2354 85.5753 15.3134 86.0313 15.3134ZM94.0083 3.18135V10.9844H94.4223C94.5423 10.9844 94.6413 10.9694 94.7193 10.9394C94.7973 10.9034 94.8843 10.8344 94.9803 10.7324L97.8603 7.64535C97.9503 7.54935 98.0403 7.47135 98.1303 7.41135C98.2203 7.35135 98.3403 7.32135 98.4903 7.32135H99.9483L96.5913 10.8944C96.5073 10.9964 96.4233 11.0864 96.3393 11.1644C96.2613 11.2424 96.1713 11.3114 96.0693 11.3714C96.1773 11.4434 96.2733 11.5274 96.3573 11.6234C96.4473 11.7134 96.5313 11.8184 96.6093 11.9384L100.173 16.4384H98.7333C98.6013 16.4384 98.4873 16.4144 98.3913 16.3664C98.3013 16.3124 98.2143 16.2314 98.1303 16.1234L95.1333 12.3884C95.0433 12.2624 94.9533 12.1814 94.8633 12.1454C94.7733 12.1034 94.6383 12.0824 94.4583 12.0824H94.0083V16.4384H92.3973V3.18135H94.0083Z" fill="#545454"/>
<path d="M7.42444 7.42422H11.1367V11.1363H7.42444V19.7979H3.71222V11.1363H0V7.42422H3.71222V5.87132C3.71222 4.40009 4.17501 2.54156 5.09564 1.52568C6.01627 0.507321 7.16583 0 8.54306 0H11.1367V3.71211H8.53811C7.92188 3.71211 7.42444 4.20953 7.42444 4.8245V7.42422Z" fill="#545454"/>
</svg>
