<svg width="22" height="26" viewBox="0 0 22 26" fill="none" xmlns="http://www.w3.org/2000/svg">
<path d="M5.04103 25.0982H1.37483C0.616839 25.0982 0 24.4197 0 23.5859V8.46342C0 7.62967 0.616839 6.95117 1.37483 6.95117H5.04103C5.79902 6.95117 6.41586 7.62967 6.41586 8.46342V23.5859C6.41586 24.4197 5.79902 25.0982 5.04103 25.0982ZM1.37483 7.95934C1.12186 7.95934 0.916551 8.18517 0.916551 8.46342V23.5859C0.916551 23.8642 1.12186 24.09 1.37483 24.09H5.04103C5.294 24.09 5.49931 23.8642 5.49931 23.5859V8.46342C5.49931 8.18517 5.294 7.95934 5.04103 7.95934H1.37483Z" fill="#545454"/>
<path d="M10.541 25.0978H6.87483C6.11684 25.0978 5.5 24.4193 5.5 23.5856V2.41405C5.5 1.58029 6.11684 0.901794 6.87483 0.901794H10.541C11.299 0.901794 11.9159 1.58029 11.9159 2.41405V23.5856C11.9159 24.4193 11.299 25.0978 10.541 25.0978ZM6.87483 1.90996C6.62186 1.90996 6.41655 2.13579 6.41655 2.41405V23.5856C6.41655 23.8638 6.62186 24.0896 6.87483 24.0896H10.541C10.794 24.0896 10.9993 23.8638 10.9993 23.5856V2.41405C10.9993 2.13579 10.794 1.90996 10.541 1.90996H6.87483Z" fill="#545454"/>
<path d="M3.20793 21.064H0.458276C0.205307 21.064 0 20.8382 0 20.5599C0 20.2817 0.205307 20.0558 0.458276 20.0558H3.20793C3.4609 20.0558 3.6662 20.2817 3.6662 20.5599C3.6662 20.8382 3.4609 21.064 3.20793 21.064Z" fill="#545454"/>
<path d="M8.70793 21.064H5.95828C5.70531 21.064 5.5 20.8381 5.5 20.5599C5.5 20.2816 5.70531 20.0558 5.95828 20.0558H8.70793C8.9609 20.0558 9.1662 20.2816 9.1662 20.5599C9.1662 20.8381 8.9609 21.064 8.70793 21.064Z" fill="#545454"/>
<path d="M3.20046 18.0403C2.94749 18.0403 2.74219 17.8144 2.74219 17.5362V10.479C2.74219 10.2007 2.94749 9.97491 3.20046 9.97491C3.45343 9.97491 3.65874 10.2007 3.65874 10.479V17.5362C3.65874 17.8144 3.45343 18.0403 3.20046 18.0403Z" fill="#545454"/>
<path d="M8.70828 18.0407C8.45531 18.0407 8.25 17.8148 8.25 17.5366V4.43041C8.25 4.15216 8.45531 3.92633 8.70828 3.92633C8.96124 3.92633 9.16655 4.15216 9.16655 4.43041V17.5366C9.16655 17.8148 8.96124 18.0407 8.70828 18.0407Z" fill="#545454"/>
<path d="M17.0806 25.0976C16.4729 25.0976 15.9157 24.652 15.7516 23.9765L11.1258 4.98668C11.0305 4.59652 11.079 4.18922 11.2633 3.83938C11.4466 3.48955 11.7426 3.23952 12.0982 3.13467L15.6398 2.09122C15.9954 1.98637 16.3657 2.0398 16.6828 2.24144C17.0009 2.44408 17.2291 2.76972 17.3235 3.15988L21.9493 22.1487C22.1455 22.9553 21.7092 23.786 20.9769 24.0007L17.4353 25.0452C17.3171 25.0805 17.1979 25.0976 17.0806 25.0976ZM15.9963 3.04797C15.9569 3.04797 15.9166 3.05301 15.8772 3.06511L12.3356 4.10856C12.2174 4.14385 12.1184 4.22652 12.057 4.34347C11.9965 4.46041 11.98 4.59551 12.0112 4.72556L16.637 23.7154C16.703 23.9836 16.9523 24.1429 17.1988 24.0723L20.7395 23.0278C20.9833 22.9563 21.129 22.679 21.0639 22.4098L16.4381 3.422C16.406 3.29195 16.3309 3.18307 16.2246 3.11552C16.154 3.07015 16.0761 3.04797 15.9963 3.04797Z" fill="#545454"/>
<path d="M15.4847 21.4291C15.2821 21.4291 15.097 21.2809 15.0429 21.0551C14.9778 20.7859 15.1227 20.5097 15.3674 20.4381L18.0235 19.6558C18.2692 19.5852 18.5203 19.7425 18.5845 20.0127C18.6495 20.2818 18.5047 20.5581 18.26 20.6297L15.6038 21.412C15.5635 21.4231 15.5241 21.4291 15.4847 21.4291Z" fill="#545454"/>
<path d="M17.4242 17.7259C17.2216 17.7259 17.0374 17.5777 16.9824 17.3519L14.2539 6.15315C14.1888 5.88397 14.3336 5.60773 14.5783 5.53615C14.8221 5.46357 15.0742 5.62286 15.1392 5.89304L17.8678 17.0918C17.9329 17.3609 17.7881 17.6372 17.5434 17.7088C17.503 17.7199 17.4636 17.7259 17.4242 17.7259Z" fill="#545454"/>
</svg>
