<svg width="32" height="31" viewBox="0 0 32 31" fill="none" xmlns="http://www.w3.org/2000/svg">
<path d="M16.3079 2.77424C20.4192 2.77424 20.9062 2.78988 22.5298 2.86386C24.0311 2.93243 24.8464 3.18324 25.3891 3.39412C26.1077 3.67344 26.6207 4.00714 27.1595 4.54594C27.6984 5.08474 28.032 5.59768 28.3113 6.31632C28.5222 6.85897 28.773 7.67433 28.8416 9.17549C28.9155 10.7992 28.9312 11.2862 28.9312 15.3975C28.9312 19.509 28.9155 19.9959 28.8416 21.6195C28.773 23.1208 28.5222 23.936 28.3113 24.4787C28.032 25.1973 27.6983 25.7104 27.1595 26.2492C26.6207 26.788 26.1077 27.1217 25.3891 27.4009C24.8464 27.6118 24.0311 27.8627 22.5298 27.9312C20.9064 28.0053 20.4195 28.0209 16.3079 28.0209C12.1962 28.0209 11.7093 28.0053 10.0859 27.9312C8.58461 27.8626 7.76937 27.6118 7.22672 27.4009C6.50808 27.1217 5.99502 26.788 5.45622 26.2492C4.91742 25.7103 4.58372 25.1973 4.30452 24.4787C4.09364 23.9362 3.84271 23.1208 3.77426 21.6195C3.70016 19.9959 3.68452 19.509 3.68452 15.3975C3.68452 11.2862 3.70016 10.7992 3.77426 9.17561C3.84283 7.67433 4.09364 6.85897 4.30452 6.31632C4.58372 5.59768 4.91742 5.08474 5.45622 4.54594C5.99514 4.00702 6.50808 3.67344 7.22672 3.39412C7.76925 3.18324 8.58461 2.93243 10.0859 2.86386C11.7095 2.78988 12.1965 2.77424 16.3079 2.77424ZM16.3079 -0.000244141C12.1261 -0.000244141 11.6017 0.0174392 9.95946 0.092383C8.32045 0.167206 7.2011 0.427525 6.22178 0.808138C5.20914 1.20162 4.35047 1.72815 3.49445 2.58417C2.63843 3.44019 2.11202 4.29886 1.71854 5.31138C1.3378 6.29082 1.07761 7.41017 1.00278 9.04906C0.92784 10.6913 0.910156 11.2157 0.910156 15.3975C0.910156 19.5793 0.92784 20.1037 1.00278 21.746C1.07761 23.385 1.3378 24.5043 1.71854 25.4836C2.1119 26.4962 2.63843 27.3549 3.49445 28.211C4.35047 29.067 5.20914 29.5934 6.22178 29.9869C7.20122 30.3676 8.32045 30.6278 9.95934 30.7026C11.6017 30.7776 12.1261 30.7953 16.3079 30.7953C20.4897 30.7953 21.0141 30.7776 22.6564 30.7026C24.2953 30.6278 25.4146 30.3676 26.3939 29.9869C27.4066 29.5935 28.2652 29.067 29.1213 28.211C29.9773 27.3549 30.5038 26.4963 30.8973 25.4836C31.2779 24.5042 31.5382 23.385 31.613 21.7461C31.688 20.1037 31.7057 19.5793 31.7057 15.3975C31.7057 11.2157 31.688 10.6913 31.613 9.04906C31.5382 7.41017 31.2779 6.29082 30.8973 5.3115C30.5038 4.29886 29.9773 3.44019 29.1213 2.58417C28.2652 1.72815 27.4066 1.2015 26.394 0.808138C25.4146 0.427525 24.2953 0.167206 22.6564 0.092383C21.0141 0.0174392 20.4897 -0.000244141 16.3079 -0.000244141ZM16.3079 7.49052C11.941 7.49052 8.40092 11.0308 8.40092 15.3975C8.40092 19.7645 11.941 23.3045 16.3079 23.3045C20.6747 23.3045 24.2149 19.7645 24.2149 15.3975C24.2149 11.0307 20.6747 7.49052 16.3079 7.49052ZM16.3079 20.5301C13.4733 20.5301 11.1753 18.2321 11.1753 15.3975C11.1753 12.5629 13.4733 10.2649 16.3079 10.2649C19.1425 10.2649 21.4405 12.5629 21.4405 15.3975C21.4405 18.2321 19.1425 20.5301 16.3079 20.5301ZM26.3749 7.17812C26.3749 8.1987 25.5478 9.02585 24.5272 9.02585C23.5067 9.02585 22.6795 8.1987 22.6795 7.17812C22.6795 6.15765 23.5067 5.33039 24.5272 5.33039C25.5478 5.33039 26.3749 6.15765 26.3749 7.17812Z" fill="#272727"/>
</svg>
