<svg width="112" height="20" viewBox="0 0 112 20" fill="none" xmlns="http://www.w3.org/2000/svg">
<path d="M9.00885 2.4212C11.4143 2.4212 11.6992 2.43035 12.6491 2.47363C13.5275 2.51375 14.0045 2.66049 14.322 2.78387C14.7425 2.9473 15.0426 3.14254 15.3578 3.45778C15.6732 3.77302 15.8683 4.07312 16.0317 4.49358C16.1551 4.81108 16.3019 5.28812 16.342 6.16642C16.3853 7.11643 16.3944 7.40133 16.3944 9.80677C16.3944 12.2123 16.3853 12.4972 16.342 13.4471C16.3019 14.3255 16.1551 14.8025 16.0317 15.12C15.8683 15.5404 15.6731 15.8406 15.3578 16.1558C15.0426 16.4711 14.7425 16.6663 14.322 16.8297C14.0045 16.953 13.5275 17.0999 12.6491 17.1399C11.6993 17.1833 11.4144 17.1924 9.00885 17.1924C6.60321 17.1924 6.3183 17.1833 5.3685 17.1399C4.49014 17.0998 4.01316 16.953 3.69567 16.8297C3.27521 16.6663 2.97503 16.4711 2.65979 16.1558C2.34455 15.8405 2.14932 15.5404 1.98596 15.12C1.86258 14.8025 1.71576 14.3255 1.67572 13.4471C1.63236 12.4972 1.62321 12.2123 1.62321 9.80677C1.62321 7.40133 1.63236 7.11643 1.67572 6.16649C1.71583 5.28812 1.86258 4.81108 1.98596 4.49358C2.14932 4.07312 2.34455 3.77302 2.65979 3.45778C2.9751 3.14247 3.27521 2.9473 3.69567 2.78387C4.01309 2.66049 4.49014 2.51375 5.3685 2.47363C6.31844 2.43035 6.60335 2.4212 9.00885 2.4212ZM9.00885 0.797913C6.56218 0.797913 6.25538 0.808259 5.29453 0.852107C4.33558 0.895884 3.68068 1.04819 3.1077 1.27088C2.51523 1.5011 2.01285 1.80916 1.51201 2.30999C1.01117 2.81083 0.703183 3.31321 0.472965 3.90562C0.250207 4.47866 0.0979713 5.13357 0.0541939 6.09245C0.0103461 7.0533 0 7.36009 0 9.80677C0 12.2534 0.0103461 12.5602 0.0541939 13.5211C0.0979713 14.48 0.250207 15.1349 0.472965 15.7079C0.703113 16.3003 1.01117 16.8028 1.51201 17.3036C2.01285 17.8045 2.51523 18.1124 3.1077 18.3427C3.68075 18.5654 4.33558 18.7177 5.29446 18.7614C6.25538 18.8053 6.56218 18.8156 9.00885 18.8156C11.4555 18.8156 11.7623 18.8053 12.7232 18.7614C13.6821 18.7177 14.337 18.5654 14.9099 18.3427C15.5024 18.1125 16.0048 17.8045 16.5056 17.3036C17.0065 16.8028 17.3145 16.3004 17.5447 15.7079C17.7674 15.1349 17.9197 14.48 17.9635 13.5212C18.0074 12.5602 18.0177 12.2534 18.0177 9.80677C18.0177 7.36009 18.0074 7.0533 17.9635 6.09245C17.9197 5.13357 17.7674 4.47866 17.5447 3.90569C17.3145 3.31321 17.0065 2.81083 16.5056 2.30999C16.0048 1.80916 15.5024 1.50103 14.91 1.27088C14.337 1.04819 13.6821 0.895884 12.7232 0.852107C11.7623 0.808259 11.4555 0.797913 9.00885 0.797913ZM9.00885 5.18058C6.45386 5.18058 4.38267 7.25191 4.38267 9.80677C4.38267 12.3618 6.45386 14.433 9.00885 14.433C11.5638 14.433 13.635 12.3618 13.635 9.80677C13.635 7.25184 11.5638 5.18058 9.00885 5.18058ZM9.00885 12.8097C7.35038 12.8097 6.00588 11.4652 6.00588 9.80677C6.00588 8.1483 7.35038 6.80379 9.00885 6.80379C10.6673 6.80379 12.0118 8.1483 12.0118 9.80677C12.0118 11.4652 10.6673 12.8097 9.00885 12.8097ZM14.8988 4.9978C14.8988 5.59492 14.4149 6.07886 13.8178 6.07886C13.2207 6.07886 12.7367 5.59492 12.7367 4.9978C12.7367 4.40075 13.2207 3.91674 13.8178 3.91674C14.4149 3.91674 14.8988 4.40075 14.8988 4.9978Z" fill="#545454"/>
<path d="M33.6536 16.1856H31.9076V3.28861H33.6536V16.1856ZM36.8511 16.1856V7.06861H37.8051C38.0331 7.06861 38.1771 7.17961 38.2371 7.40161L38.3631 8.39161C38.7591 7.95361 39.2001 7.59961 39.6861 7.32961C40.1781 7.05961 40.7451 6.92461 41.3871 6.92461C41.8851 6.92461 42.3231 7.00861 42.7011 7.17661C43.0851 7.33861 43.4031 7.57261 43.6551 7.87861C43.9131 8.17861 44.1081 8.54161 44.2401 8.96761C44.3721 9.39361 44.4381 9.86461 44.4381 10.3806V16.1856H42.8361V10.3806C42.8361 9.69061 42.6771 9.15661 42.3591 8.77861C42.0471 8.39461 41.5671 8.20261 40.9191 8.20261C40.4451 8.20261 40.0011 8.31661 39.5871 8.54461C39.1791 8.77261 38.8011 9.08161 38.4531 9.47161V16.1856H36.8511ZM52.0731 8.57161C52.0011 8.70361 51.8901 8.76961 51.7401 8.76961C51.6501 8.76961 51.5481 8.73661 51.4341 8.67061C51.3201 8.60461 51.1791 8.53261 51.0111 8.45461C50.8491 8.37061 50.6541 8.29561 50.4261 8.22961C50.1981 8.15761 49.9281 8.12161 49.6161 8.12161C49.3461 8.12161 49.1031 8.15761 48.8871 8.22961C48.6711 8.29561 48.4851 8.38861 48.3291 8.50861C48.1791 8.62861 48.0621 8.76961 47.9781 8.93161C47.9001 9.08761 47.8611 9.25861 47.8611 9.44461C47.8611 9.67861 47.9271 9.87361 48.0591 10.0296C48.1971 10.1856 48.3771 10.3206 48.5991 10.4346C48.8211 10.5486 49.0731 10.6506 49.3551 10.7406C49.6371 10.8246 49.9251 10.9176 50.2191 11.0196C50.5191 11.1156 50.8101 11.2236 51.0921 11.3436C51.3741 11.4636 51.6261 11.6136 51.8481 11.7936C52.0701 11.9736 52.2471 12.1956 52.3791 12.4596C52.5171 12.7176 52.5861 13.0296 52.5861 13.3956C52.5861 13.8156 52.5111 14.2056 52.3611 14.5656C52.2111 14.9196 51.9891 15.2286 51.6951 15.4926C51.4011 15.7506 51.0411 15.9546 50.6151 16.1046C50.1891 16.2546 49.6971 16.3296 49.1391 16.3296C48.5031 16.3296 47.9271 16.2276 47.4111 16.0236C46.8951 15.8136 46.4571 15.5466 46.0971 15.2226L46.4751 14.6106C46.5231 14.5326 46.5801 14.4726 46.6461 14.4306C46.7121 14.3886 46.7991 14.3676 46.9071 14.3676C47.0151 14.3676 47.1291 14.4096 47.2491 14.4936C47.3691 14.5776 47.5131 14.6706 47.6811 14.7726C47.8551 14.8746 48.0621 14.9676 48.3021 15.0516C48.5481 15.1356 48.8541 15.1776 49.2201 15.1776C49.5321 15.1776 49.8051 15.1386 50.0391 15.0606C50.2731 14.9766 50.4681 14.8656 50.6241 14.7276C50.7801 14.5896 50.8941 14.4306 50.9661 14.2506C51.0441 14.0706 51.0831 13.8786 51.0831 13.6746C51.0831 13.4226 51.0141 13.2156 50.8761 13.0536C50.7441 12.8856 50.5671 12.7446 50.3451 12.6306C50.1231 12.5106 49.8681 12.4086 49.5801 12.3246C49.2981 12.2346 49.0071 12.1416 48.7071 12.0456C48.4131 11.9496 48.1221 11.8416 47.8341 11.7216C47.5521 11.5956 47.3001 11.4396 47.0781 11.2536C46.8561 11.0676 46.6761 10.8396 46.5381 10.5696C46.4061 10.2936 46.3401 9.96061 46.3401 9.57061C46.3401 9.22261 46.4121 8.88961 46.5561 8.57161C46.7001 8.24761 46.9101 7.96561 47.1861 7.72561C47.4621 7.47961 47.8011 7.28461 48.2031 7.14061C48.6051 6.99661 49.0641 6.92461 49.5801 6.92461C50.1801 6.92461 50.7171 7.02061 51.1911 7.21261C51.6711 7.39861 52.0851 7.65661 52.4331 7.98661L52.0731 8.57161ZM57.4208 16.3296C56.7008 16.3296 56.1458 16.1286 55.7558 15.7266C55.3718 15.3246 55.1798 14.7456 55.1798 13.9896V8.40961H54.0818C53.9858 8.40961 53.9048 8.38261 53.8388 8.32861C53.7728 8.26861 53.7398 8.17861 53.7398 8.05861V7.41961L55.2338 7.23061L55.6028 4.41361C55.6148 4.32361 55.6538 4.25161 55.7197 4.19761C55.7858 4.13761 55.8698 4.10761 55.9718 4.10761H56.7818V7.24861H59.3918V8.40961H56.7818V13.8816C56.7818 14.2656 56.8748 14.5506 57.0608 14.7366C57.2468 14.9226 57.4868 15.0156 57.7808 15.0156C57.9488 15.0156 58.0928 14.9946 58.2128 14.9526C58.3388 14.9046 58.4468 14.8536 58.5368 14.7996C58.6268 14.7456 58.7018 14.6976 58.7618 14.6556C58.8278 14.6076 58.8848 14.5836 58.9328 14.5836C59.0168 14.5836 59.0918 14.6346 59.1578 14.7366L59.6258 15.5016C59.3498 15.7596 59.0168 15.9636 58.6268 16.1136C58.2368 16.2576 57.8348 16.3296 57.4208 16.3296ZM68.0686 16.1856H67.3576C67.2016 16.1856 67.0756 16.1616 66.9796 16.1136C66.8836 16.0656 66.8206 15.9636 66.7906 15.8076L66.6106 14.9616C66.3706 15.1776 66.1366 15.3726 65.9086 15.5466C65.6806 15.7146 65.4406 15.8586 65.1886 15.9786C64.9366 16.0926 64.6666 16.1796 64.3786 16.2396C64.0966 16.2996 63.7816 16.3296 63.4336 16.3296C63.0796 16.3296 62.7466 16.2816 62.4346 16.1856C62.1286 16.0836 61.8616 15.9336 61.6336 15.7356C61.4056 15.5376 61.2226 15.2886 61.0846 14.9886C60.9526 14.6826 60.8866 14.3226 60.8866 13.9086C60.8866 13.5486 60.9856 13.2036 61.1836 12.8736C61.3816 12.5376 61.6996 12.2406 62.1376 11.9826C62.5816 11.7246 63.1606 11.5146 63.8746 11.3526C64.5886 11.1846 65.4616 11.0886 66.4936 11.0646V10.3536C66.4936 9.64561 66.3406 9.11161 66.0346 8.75161C65.7346 8.38561 65.2876 8.20261 64.6936 8.20261C64.3036 8.20261 63.9736 8.25361 63.7036 8.35561C63.4396 8.45161 63.2086 8.56261 63.0106 8.68861C62.8186 8.80861 62.6506 8.91961 62.5066 9.02161C62.3686 9.11761 62.2306 9.16561 62.0926 9.16561C61.9846 9.16561 61.8886 9.13861 61.8046 9.08461C61.7266 9.02461 61.6636 8.95261 61.6156 8.86861L61.3276 8.35561C61.8316 7.86961 62.3746 7.50661 62.9566 7.26661C63.5386 7.02661 64.1836 6.90661 64.8916 6.90661C65.4016 6.90661 65.8546 6.99061 66.2506 7.15861C66.6466 7.32661 66.9796 7.56061 67.2496 7.86061C67.5196 8.16061 67.7236 8.52361 67.8616 8.94961C67.9996 9.37561 68.0686 9.84361 68.0686 10.3536V16.1856ZM63.9106 15.2046C64.1926 15.2046 64.4506 15.1776 64.6846 15.1236C64.9186 15.0636 65.1376 14.9826 65.3416 14.8806C65.5516 14.7726 65.7496 14.6436 65.9356 14.4936C66.1276 14.3436 66.3136 14.1726 66.4936 13.9806V12.0816C65.7556 12.1056 65.1286 12.1656 64.6126 12.2616C64.0966 12.3516 63.6766 12.4716 63.3526 12.6216C63.0286 12.7716 62.7916 12.9486 62.6416 13.1526C62.4976 13.3566 62.4256 13.5846 62.4256 13.8366C62.4256 14.0766 62.4646 14.2836 62.5426 14.4576C62.6206 14.6316 62.7256 14.7756 62.8576 14.8896C62.9896 14.9976 63.1456 15.0786 63.3256 15.1326C63.5056 15.1806 63.7006 15.2046 63.9106 15.2046ZM73.5646 6.91561C73.9606 6.91561 74.3296 6.96061 74.6716 7.05061C75.0196 7.13461 75.3346 7.26061 75.6166 7.42861H78.0916V8.02261C78.0916 8.22061 77.9656 8.34661 77.7136 8.40061L76.6786 8.54461C76.8826 8.93461 76.9846 9.36961 76.9846 9.84961C76.9846 10.2936 76.8976 10.6986 76.7236 11.0646C76.5556 11.4246 76.3186 11.7336 76.0126 11.9916C75.7126 12.2496 75.3526 12.4476 74.9326 12.5856C74.5186 12.7236 74.0626 12.7926 73.5646 12.7926C73.1386 12.7926 72.7366 12.7416 72.3586 12.6396C72.1666 12.7596 72.0196 12.8886 71.9176 13.0266C71.8216 13.1646 71.7736 13.2996 71.7736 13.4316C71.7736 13.6476 71.8606 13.8126 72.0346 13.9266C72.2086 14.0346 72.4396 14.1126 72.7276 14.1606C73.0156 14.2086 73.3426 14.2386 73.7086 14.2506C74.0746 14.2626 74.4466 14.2836 74.8246 14.3136C75.2086 14.3376 75.5836 14.3826 75.9496 14.4486C76.3156 14.5146 76.6426 14.6226 76.9306 14.7726C77.2186 14.9226 77.4496 15.1296 77.6236 15.3936C77.7976 15.6576 77.8846 15.9996 77.8846 16.4196C77.8846 16.8096 77.7856 17.1876 77.5876 17.5536C77.3956 17.9196 77.1166 18.2436 76.7506 18.5256C76.3846 18.8136 75.9376 19.0416 75.4096 19.2096C74.8816 19.3836 74.2846 19.4706 73.6186 19.4706C72.9526 19.4706 72.3676 19.4046 71.8636 19.2726C71.3656 19.1406 70.9516 18.9636 70.6216 18.7416C70.2916 18.5196 70.0426 18.2616 69.8746 17.9676C69.7126 17.6796 69.6316 17.3766 69.6316 17.0586C69.6316 16.6086 69.7726 16.2276 70.0546 15.9156C70.3426 15.5976 70.7356 15.3456 71.2336 15.1596C70.9756 15.0396 70.7686 14.8806 70.6126 14.6826C70.4626 14.4786 70.3876 14.2086 70.3876 13.8726C70.3876 13.7406 70.4116 13.6056 70.4596 13.4676C70.5076 13.3236 70.5796 13.1826 70.6756 13.0446C70.7776 12.9066 70.9006 12.7746 71.0446 12.6486C71.1886 12.5226 71.3566 12.4116 71.5486 12.3156C71.0986 12.0636 70.7446 11.7306 70.4866 11.3166C70.2346 10.8966 70.1086 10.4076 70.1086 9.84961C70.1086 9.40561 70.1926 9.00361 70.3606 8.64361C70.5346 8.27761 70.7746 7.96861 71.0806 7.71661C71.3866 7.45861 71.7496 7.26061 72.1696 7.12261C72.5956 6.98461 73.0606 6.91561 73.5646 6.91561ZM76.4086 16.6806C76.4086 16.4526 76.3456 16.2696 76.2196 16.1316C76.0936 15.9936 75.9226 15.8886 75.7066 15.8166C75.4906 15.7386 75.2416 15.6816 74.9596 15.6456C74.6776 15.6096 74.3806 15.5856 74.0686 15.5736C73.7566 15.5556 73.4386 15.5376 73.1146 15.5196C72.7906 15.5016 72.4816 15.4686 72.1876 15.4206C71.8456 15.5826 71.5666 15.7806 71.3506 16.0146C71.1406 16.2486 71.0356 16.5276 71.0356 16.8516C71.0356 17.0556 71.0866 17.2446 71.1886 17.4186C71.2966 17.5986 71.4586 17.7516 71.6746 17.8776C71.8906 18.0096 72.1606 18.1116 72.4846 18.1836C72.8146 18.2616 73.2016 18.3006 73.6456 18.3006C74.0776 18.3006 74.4646 18.2616 74.8066 18.1836C75.1486 18.1056 75.4366 17.9946 75.6706 17.8506C75.9106 17.7066 76.0936 17.5356 76.2196 17.3376C76.3456 17.1396 76.4086 16.9206 76.4086 16.6806ZM73.5646 11.7306C73.8886 11.7306 74.1736 11.6856 74.4196 11.5956C74.6716 11.5056 74.8816 11.3796 75.0496 11.2176C75.2176 11.0556 75.3436 10.8636 75.4276 10.6416C75.5116 10.4136 75.5536 10.1646 75.5536 9.89461C75.5536 9.33661 75.3826 8.89261 75.0406 8.56261C74.7046 8.23261 74.2126 8.06761 73.5646 8.06761C72.9226 8.06761 72.4306 8.23261 72.0886 8.56261C71.7526 8.89261 71.5846 9.33661 71.5846 9.89461C71.5846 10.1646 71.6266 10.4136 71.7106 10.6416C71.8006 10.8636 71.9296 11.0556 72.0976 11.2176C72.2656 11.3796 72.4726 11.5056 72.7186 11.5956C72.9646 11.6856 73.2466 11.7306 73.5646 11.7306ZM79.689 16.1856V7.06861H80.607C80.781 7.06861 80.901 7.10161 80.967 7.16761C81.033 7.23361 81.078 7.34761 81.102 7.50961L81.21 8.93161C81.522 8.29561 81.906 7.80061 82.362 7.44661C82.824 7.08661 83.364 6.90661 83.982 6.90661C84.234 6.90661 84.462 6.93661 84.666 6.99661C84.87 7.05061 85.059 7.12861 85.233 7.23061L85.026 8.42761C84.984 8.57761 84.891 8.65261 84.747 8.65261C84.663 8.65261 84.534 8.62561 84.36 8.57161C84.186 8.51161 83.943 8.48161 83.631 8.48161C83.073 8.48161 82.605 8.64361 82.227 8.96761C81.855 9.29161 81.543 9.76261 81.291 10.3806V16.1856H79.689ZM93.3108 16.1856H92.5998C92.4438 16.1856 92.3178 16.1616 92.2218 16.1136C92.1258 16.0656 92.0628 15.9636 92.0328 15.8076L91.8528 14.9616C91.6128 15.1776 91.3788 15.3726 91.1508 15.5466C90.9228 15.7146 90.6828 15.8586 90.4308 15.9786C90.1788 16.0926 89.9088 16.1796 89.6208 16.2396C89.3388 16.2996 89.0238 16.3296 88.6758 16.3296C88.3218 16.3296 87.9888 16.2816 87.6768 16.1856C87.3708 16.0836 87.1038 15.9336 86.8758 15.7356C86.6478 15.5376 86.4648 15.2886 86.3268 14.9886C86.1948 14.6826 86.1288 14.3226 86.1288 13.9086C86.1288 13.5486 86.2278 13.2036 86.4258 12.8736C86.6238 12.5376 86.9418 12.2406 87.3798 11.9826C87.8238 11.7246 88.4028 11.5146 89.1168 11.3526C89.8308 11.1846 90.7038 11.0886 91.7358 11.0646V10.3536C91.7358 9.64561 91.5828 9.11161 91.2768 8.75161C90.9768 8.38561 90.5298 8.20261 89.9358 8.20261C89.5458 8.20261 89.2158 8.25361 88.9458 8.35561C88.6818 8.45161 88.4508 8.56261 88.2528 8.68861C88.0608 8.80861 87.8928 8.91961 87.7488 9.02161C87.6108 9.11761 87.4728 9.16561 87.3348 9.16561C87.2268 9.16561 87.1308 9.13861 87.0468 9.08461C86.9688 9.02461 86.9058 8.95261 86.8578 8.86861L86.5698 8.35561C87.0738 7.86961 87.6168 7.50661 88.1988 7.26661C88.7808 7.02661 89.4258 6.90661 90.1338 6.90661C90.6438 6.90661 91.0968 6.99061 91.4928 7.15861C91.8888 7.32661 92.2218 7.56061 92.4918 7.86061C92.7618 8.16061 92.9658 8.52361 93.1038 8.94961C93.2418 9.37561 93.3108 9.84361 93.3108 10.3536V16.1856ZM89.1528 15.2046C89.4348 15.2046 89.6928 15.1776 89.9268 15.1236C90.1608 15.0636 90.3798 14.9826 90.5838 14.8806C90.7938 14.7726 90.9918 14.6436 91.1778 14.4936C91.3698 14.3436 91.5558 14.1726 91.7358 13.9806V12.0816C90.9978 12.1056 90.3708 12.1656 89.8548 12.2616C89.3388 12.3516 88.9188 12.4716 88.5948 12.6216C88.2708 12.7716 88.0338 12.9486 87.8838 13.1526C87.7398 13.3566 87.6678 13.5846 87.6678 13.8366C87.6678 14.0766 87.7068 14.2836 87.7848 14.4576C87.8628 14.6316 87.9678 14.7756 88.0998 14.8896C88.2318 14.9976 88.3878 15.0786 88.5678 15.1326C88.7478 15.1806 88.9428 15.2046 89.1528 15.2046ZM95.7378 16.1856V7.06861H96.6918C96.9198 7.06861 97.0638 7.17961 97.1238 7.40161L97.2408 8.33761C97.5768 7.92361 97.9518 7.58461 98.3658 7.32061C98.7858 7.05661 99.2718 6.92461 99.8238 6.92461C100.442 6.92461 100.94 7.09561 101.318 7.43761C101.702 7.77961 101.978 8.24161 102.146 8.82361C102.272 8.49361 102.437 8.20861 102.641 7.96861C102.851 7.72861 103.085 7.53061 103.343 7.37461C103.601 7.21861 103.874 7.10461 104.162 7.03261C104.456 6.96061 104.753 6.92461 105.053 6.92461C105.533 6.92461 105.959 7.00261 106.331 7.15861C106.709 7.30861 107.027 7.53061 107.285 7.82461C107.549 8.11861 107.75 8.48161 107.888 8.91361C108.026 9.33961 108.095 9.82861 108.095 10.3806V16.1856H106.493V10.3806C106.493 9.66661 106.337 9.12661 106.025 8.76061C105.713 8.38861 105.26 8.20261 104.666 8.20261C104.402 8.20261 104.15 8.25061 103.91 8.34661C103.676 8.43661 103.469 8.57161 103.289 8.75161C103.109 8.93161 102.965 9.15961 102.857 9.43561C102.755 9.70561 102.704 10.0206 102.704 10.3806V16.1856H101.102V10.3806C101.102 9.64861 100.955 9.10261 100.661 8.74261C100.367 8.38261 99.9378 8.20261 99.3738 8.20261C98.9778 8.20261 98.6088 8.31061 98.2668 8.52661C97.9308 8.73661 97.6218 9.02461 97.3398 9.39061V16.1856H95.7378Z" fill="#545454"/>
</svg>
