<svg width="24" height="19" viewBox="0 0 24 19" fill="none" xmlns="http://www.w3.org/2000/svg">
<path d="M23.3162 9.37649H0.492568C0.401299 9.37649 0.313768 9.34024 0.249231 9.2757C0.184694 9.21116 0.148438 9.12363 0.148438 9.03236C0.148438 8.94109 0.184694 8.85356 0.249231 8.78903C0.313768 8.72449 0.401299 8.68823 0.492568 8.68823H23.3162C23.4075 8.68823 23.495 8.72449 23.5596 8.78903C23.6241 8.85356 23.6604 8.94109 23.6604 9.03236C23.6604 9.12363 23.6241 9.21116 23.5596 9.2757C23.495 9.34024 23.4075 9.37649 23.3162 9.37649Z" fill="black"/>
<path d="M23.3162 0.688261H0.492568C0.401299 0.688261 0.313768 0.652004 0.249231 0.587467C0.184694 0.52293 0.148438 0.4354 0.148438 0.34413C0.148438 0.252861 0.184694 0.165331 0.249231 0.100794C0.313768 0.0362566 0.401299 0 0.492568 0H23.3162C23.4075 0 23.495 0.0362566 23.5596 0.100794C23.6241 0.165331 23.6604 0.252861 23.6604 0.34413C23.6604 0.4354 23.6241 0.52293 23.5596 0.587467C23.495 0.652004 23.4075 0.688261 23.3162 0.688261Z" fill="black"/>
<path d="M23.3162 18.0647H0.492568C0.401299 18.0647 0.313768 18.0285 0.249231 17.9639C0.184694 17.8994 0.148438 17.8119 0.148438 17.7206C0.148438 17.6293 0.184694 17.5418 0.249231 17.4773C0.313768 17.4127 0.401299 17.3765 0.492568 17.3765H23.3162C23.4075 17.3765 23.495 17.4127 23.5596 17.4773C23.6241 17.5418 23.6604 17.6293 23.6604 17.7206C23.6604 17.8119 23.6241 17.8994 23.5596 17.9639C23.495 18.0285 23.4075 18.0647 23.3162 18.0647Z" fill="black"/>
</svg>
