<svg width="25" height="15" viewBox="0 0 25 15" fill="none" xmlns="http://www.w3.org/2000/svg">
<path d="M23.8436 7.67312H1.01991C0.928643 7.67312 0.841112 7.63687 0.776575 7.57233C0.712038 7.50779 0.675781 7.42026 0.675781 7.32899C0.675781 7.23772 0.712038 7.15019 0.776575 7.08566C0.841112 7.02112 0.928643 6.98486 1.01991 6.98486H23.8436C23.9348 6.98486 24.0224 7.02112 24.0869 7.08566C24.1514 7.15019 24.1877 7.23772 24.1877 7.32899C24.1877 7.42026 24.1514 7.50779 24.0869 7.57233C24.0224 7.63687 23.9348 7.67312 23.8436 7.67312Z" fill="black"/>
<path d="M23.8436 0.984892H1.01991C0.928643 0.984892 0.841112 0.948635 0.776575 0.884098C0.712038 0.819561 0.675781 0.73203 0.675781 0.640761C0.675781 0.549492 0.712038 0.461961 0.776575 0.397424C0.841112 0.332887 0.928643 0.296631 1.01991 0.296631H23.8436C23.9348 0.296631 24.0224 0.332887 24.0869 0.397424C24.1514 0.461961 24.1877 0.549492 24.1877 0.640761C24.1877 0.73203 24.1514 0.819561 24.0869 0.884098C24.0224 0.948635 23.9348 0.984892 23.8436 0.984892Z" fill="black"/>
<path d="M23.8436 14.3614H1.01991C0.928643 14.3614 0.841112 14.3251 0.776575 14.2606C0.712038 14.196 0.675781 14.1085 0.675781 14.0172C0.675781 13.926 0.712038 13.8384 0.776575 13.7739C0.841112 13.7094 0.928643 13.6731 1.01991 13.6731H23.8436C23.9348 13.6731 24.0224 13.7094 24.0869 13.7739C24.1514 13.8384 24.1877 13.926 24.1877 14.0172C24.1877 14.1085 24.1514 14.196 24.0869 14.2606C24.0224 14.3251 23.9348 14.3614 23.8436 14.3614Z" fill="black"/>
</svg>
