<svg width="25" height="11" viewBox="0 0 25 11" fill="none" xmlns="http://www.w3.org/2000/svg">
<path d="M23.9881 5.94778H1.16444C1.07317 5.94778 0.985643 5.91153 0.921106 5.84699C0.856569 5.78245 0.820312 5.69492 0.820312 5.60365C0.820312 5.51238 0.856569 5.42485 0.921106 5.36032C0.985643 5.29578 1.07317 5.25952 1.16444 5.25952H23.9881C24.0794 5.25952 24.1669 5.29578 24.2314 5.36032C24.296 5.42485 24.3322 5.51238 24.3322 5.60365C24.3322 5.69492 24.296 5.78245 24.2314 5.84699C24.1669 5.91153 24.0794 5.94778 23.9881 5.94778Z" fill="black"/>
<path d="M23.9881 0.984892H1.16444C1.07317 0.984892 0.985643 0.948635 0.921106 0.884098C0.856569 0.819561 0.820312 0.73203 0.820312 0.640761C0.820312 0.549492 0.856569 0.461961 0.921106 0.397424C0.985643 0.332887 1.07317 0.296631 1.16444 0.296631H23.9881C24.0794 0.296631 24.1669 0.332887 24.2314 0.397424C24.296 0.461961 24.3322 0.549492 24.3322 0.640761C24.3322 0.73203 24.296 0.819561 24.2314 0.884098C24.1669 0.948635 24.0794 0.984892 23.9881 0.984892Z" fill="black"/>
<path d="M23.9881 10.9112H1.16444C1.07317 10.9112 0.985643 10.8749 0.921106 10.8104C0.856569 10.7458 0.820312 10.6583 0.820312 10.567C0.820312 10.4758 0.856569 10.3882 0.921106 10.3237C0.985643 10.2592 1.07317 10.2229 1.16444 10.2229H23.9881C24.0794 10.2229 24.1669 10.2592 24.2314 10.3237C24.296 10.3882 24.3322 10.4758 24.3322 10.567C24.3322 10.6583 24.296 10.7458 24.2314 10.8104C24.1669 10.8749 24.0794 10.9112 23.9881 10.9112Z" fill="black"/>
</svg>
