<svg width="26" height="25" viewBox="0 0 26 25" fill="none" xmlns="http://www.w3.org/2000/svg">
<path d="M24.7793 0.944336V24.1029" stroke="#A6A6A6" stroke-width="1.78143" stroke-linecap="round" stroke-linejoin="round"/>
<path d="M1.65673 20.825C1.65585 21.1454 1.74144 21.4602 1.90447 21.7362C2.0675 22.0121 2.30194 22.2389 2.58306 22.3926C2.85388 22.549 3.16108 22.6313 3.47378 22.6313C3.78649 22.6313 4.09368 22.549 4.36449 22.3926L17.173 14.02C17.423 13.8585 17.6286 13.6369 17.7709 13.3755C17.9132 13.1141 17.9878 12.8212 17.9878 12.5236C17.9878 12.2259 17.9132 11.933 17.7709 11.6716C17.6286 11.4102 17.423 11.1887 17.173 11.0272L4.32886 2.72572C4.05805 2.56936 3.75086 2.48706 3.43815 2.48706C3.12546 2.48706 2.81825 2.56936 2.54744 2.72572C2.26631 2.87954 2.03187 3.10636 1.86884 3.38225C1.70581 3.65815 1.62023 3.97291 1.6211 4.29338L1.65673 20.825Z" stroke="#A6A6A6" stroke-width="1.78143" stroke-linecap="round" stroke-linejoin="round"/>
</svg>
