<svg width="53" height="53" viewBox="0 0 53 53" fill="none" xmlns="http://www.w3.org/2000/svg">
<path d="M14.9665 2H5.70471C3.65866 2 2 3.65866 2 5.70471V46.4566C2 48.5027 3.65866 50.1613 5.70471 50.1613H14.9665C17.0125 50.1613 18.6712 48.5027 18.6712 46.4566V5.70471C18.6712 3.65866 17.0125 2 14.9665 2Z" fill="#70A2B7" stroke="#70A2B7" stroke-width="3.70471" stroke-linecap="round" stroke-linejoin="round"/>
<path d="M46.4567 2H37.1949C35.1489 2 33.4902 3.65866 33.4902 5.70471V46.4566C33.4902 48.5027 35.1489 50.1613 37.1949 50.1613H46.4567C48.5028 50.1613 50.1614 48.5027 50.1614 46.4566V5.70471C50.1614 3.65866 48.5028 2 46.4567 2Z" fill="#70A2B7" stroke="#70A2B7" stroke-width="3.70471" stroke-linecap="round" stroke-linejoin="round"/>
</svg>
