<svg width="106" height="22" viewBox="0 0 106 22" fill="none" xmlns="http://www.w3.org/2000/svg">
<path d="M36.0103 12.7202V17.5442H34.2733V4.64719H38.0803C38.8963 4.64719 39.6043 4.74319 40.2043 4.93519C40.8103 5.12119 41.3113 5.38819 41.7073 5.73619C42.1033 6.08419 42.3973 6.50419 42.5893 6.99619C42.7873 7.48819 42.8863 8.03719 42.8863 8.64319C42.8863 9.24319 42.7813 9.79219 42.5713 10.2902C42.3613 10.7882 42.0523 11.2172 41.6443 11.5772C41.2423 11.9372 40.7413 12.2192 40.1413 12.4232C39.5413 12.6212 38.8543 12.7202 38.0803 12.7202H36.0103ZM36.0103 11.3342H38.0803C38.5783 11.3342 39.0163 11.2682 39.3943 11.1362C39.7783 11.0042 40.0993 10.8212 40.3573 10.5872C40.6153 10.3472 40.8103 10.0622 40.9423 9.73219C41.0743 9.40219 41.1403 9.03919 41.1403 8.64319C41.1403 7.82119 40.8853 7.17919 40.3753 6.71719C39.8713 6.25519 39.1063 6.02419 38.0803 6.02419H36.0103V11.3342ZM46.6273 8.42719V17.5442H45.0253V8.42719H46.6273ZM46.9873 5.56519C46.9873 5.72119 46.9543 5.86819 46.8883 6.00619C46.8283 6.13819 46.7443 6.25819 46.6363 6.36619C46.5343 6.46819 46.4143 6.54919 46.2763 6.60919C46.1383 6.66919 45.9913 6.69919 45.8353 6.69919C45.6793 6.69919 45.5323 6.66919 45.3943 6.60919C45.2623 6.54919 45.1423 6.46819 45.0343 6.36619C44.9323 6.25819 44.8513 6.13819 44.7913 6.00619C44.7313 5.86819 44.7013 5.72119 44.7013 5.56519C44.7013 5.40919 44.7313 5.26219 44.7913 5.12419C44.8513 4.98019 44.9323 4.85719 45.0343 4.75519C45.1423 4.64719 45.2623 4.56319 45.3943 4.50319C45.5323 4.44319 45.6793 4.41319 45.8353 4.41319C45.9913 4.41319 46.1383 4.44319 46.2763 4.50319C46.4143 4.56319 46.5343 4.64719 46.6363 4.75519C46.7443 4.85719 46.8283 4.98019 46.8883 5.12419C46.9543 5.26219 46.9873 5.40919 46.9873 5.56519ZM49.4507 17.5442V8.42719H50.4047C50.6327 8.42719 50.7767 8.53819 50.8367 8.76019L50.9627 9.75019C51.3587 9.31219 51.7997 8.95819 52.2857 8.68819C52.7777 8.41819 53.3447 8.28319 53.9867 8.28319C54.4847 8.28319 54.9227 8.36719 55.3007 8.53519C55.6847 8.69719 56.0027 8.93119 56.2547 9.23719C56.5127 9.53719 56.7077 9.90019 56.8397 10.3262C56.9717 10.7522 57.0377 11.2232 57.0377 11.7392V17.5442H55.4357V11.7392C55.4357 11.0492 55.2767 10.5152 54.9587 10.1372C54.6467 9.75319 54.1667 9.56119 53.5187 9.56119C53.0447 9.56119 52.6007 9.67519 52.1867 9.90319C51.7787 10.1312 51.4007 10.4402 51.0527 10.8302V17.5442H49.4507ZM62.2157 17.6882C61.4957 17.6882 60.9407 17.4872 60.5507 17.0852C60.1667 16.6832 59.9747 16.1042 59.9747 15.3482V9.76819H58.8767C58.7807 9.76819 58.6997 9.74119 58.6337 9.68719C58.5677 9.62719 58.5347 9.53719 58.5347 9.41719V8.77819L60.0287 8.58919L60.3977 5.77219C60.4097 5.68219 60.4487 5.61019 60.5147 5.55619C60.5807 5.49619 60.6647 5.46619 60.7667 5.46619H61.5767V8.60719H64.1867V9.76819H61.5767V15.2402C61.5767 15.6242 61.6697 15.9092 61.8557 16.0952C62.0417 16.2812 62.2817 16.3742 62.5757 16.3742C62.7437 16.3742 62.8877 16.3532 63.0077 16.3112C63.1337 16.2632 63.2417 16.2122 63.3317 16.1582C63.4217 16.1042 63.4967 16.0562 63.5567 16.0142C63.6227 15.9662 63.6797 15.9422 63.7277 15.9422C63.8117 15.9422 63.8867 15.9932 63.9527 16.0952L64.4207 16.8602C64.1447 17.1182 63.8117 17.3222 63.4217 17.4722C63.0317 17.6162 62.6297 17.6882 62.2157 17.6882ZM69.7765 8.28319C70.3225 8.28319 70.8265 8.37619 71.2885 8.56219C71.7505 8.74219 72.1495 9.00619 72.4855 9.35419C72.8215 9.69619 73.0825 10.1222 73.2685 10.6322C73.4605 11.1362 73.5565 11.7122 73.5565 12.3602C73.5565 12.6122 73.5295 12.7802 73.4755 12.8642C73.4215 12.9482 73.3195 12.9902 73.1695 12.9902H67.1035C67.1155 13.5662 67.1935 14.0672 67.3375 14.4932C67.4815 14.9192 67.6795 15.2762 67.9315 15.5642C68.1835 15.8462 68.4835 16.0592 68.8315 16.2032C69.1795 16.3412 69.5695 16.4102 70.0015 16.4102C70.4035 16.4102 70.7485 16.3652 71.0365 16.2752C71.3305 16.1792 71.5825 16.0772 71.7925 15.9692C72.0025 15.8612 72.1765 15.7622 72.3145 15.6722C72.4585 15.5762 72.5815 15.5282 72.6835 15.5282C72.8155 15.5282 72.9175 15.5792 72.9895 15.6812L73.4395 16.2662C73.2415 16.5062 73.0045 16.7162 72.7285 16.8962C72.4525 17.0702 72.1555 17.2142 71.8375 17.3282C71.5255 17.4422 71.2015 17.5262 70.8655 17.5802C70.5295 17.6402 70.1965 17.6702 69.8665 17.6702C69.2365 17.6702 68.6545 17.5652 68.1205 17.3552C67.5925 17.1392 67.1335 16.8272 66.7435 16.4192C66.3595 16.0052 66.0595 15.4952 65.8435 14.8892C65.6275 14.2832 65.5195 13.5872 65.5195 12.8012C65.5195 12.1652 65.6155 11.5712 65.8075 11.0192C66.0055 10.4672 66.2875 9.99019 66.6535 9.58819C67.0195 9.18019 67.4665 8.86219 67.9945 8.63419C68.5225 8.40019 69.1165 8.28319 69.7765 8.28319ZM69.8125 9.46219C69.0385 9.46219 68.4295 9.68719 67.9855 10.1372C67.5415 10.5812 67.2655 11.1992 67.1575 11.9912H72.1165C72.1165 11.6192 72.0655 11.2802 71.9635 10.9742C71.8615 10.6622 71.7115 10.3952 71.5135 10.1732C71.3155 9.94519 71.0725 9.77119 70.7845 9.65119C70.5025 9.52519 70.1785 9.46219 69.8125 9.46219ZM75.607 17.5442V8.42719H76.525C76.699 8.42719 76.819 8.46019 76.885 8.52619C76.951 8.59219 76.996 8.70619 77.02 8.86819L77.128 10.2902C77.44 9.65419 77.824 9.15919 78.28 8.80519C78.742 8.44519 79.282 8.26519 79.9 8.26519C80.152 8.26519 80.38 8.29519 80.584 8.35519C80.788 8.40919 80.977 8.48719 81.151 8.58919L80.944 9.78619C80.902 9.93619 80.809 10.0112 80.665 10.0112C80.581 10.0112 80.452 9.98419 80.278 9.93019C80.104 9.87019 79.861 9.84019 79.549 9.84019C78.991 9.84019 78.523 10.0022 78.145 10.3262C77.773 10.6502 77.461 11.1212 77.209 11.7392V17.5442H75.607ZM86.4757 8.28319C87.0217 8.28319 87.5257 8.37619 87.9877 8.56219C88.4497 8.74219 88.8487 9.00619 89.1847 9.35419C89.5207 9.69619 89.7817 10.1222 89.9677 10.6322C90.1597 11.1362 90.2557 11.7122 90.2557 12.3602C90.2557 12.6122 90.2287 12.7802 90.1747 12.8642C90.1207 12.9482 90.0187 12.9902 89.8687 12.9902H83.8027C83.8147 13.5662 83.8927 14.0672 84.0367 14.4932C84.1807 14.9192 84.3787 15.2762 84.6307 15.5642C84.8827 15.8462 85.1827 16.0592 85.5307 16.2032C85.8787 16.3412 86.2687 16.4102 86.7007 16.4102C87.1027 16.4102 87.4477 16.3652 87.7357 16.2752C88.0297 16.1792 88.2817 16.0772 88.4917 15.9692C88.7017 15.8612 88.8757 15.7622 89.0137 15.6722C89.1577 15.5762 89.2807 15.5282 89.3827 15.5282C89.5147 15.5282 89.6167 15.5792 89.6887 15.6812L90.1387 16.2662C89.9407 16.5062 89.7037 16.7162 89.4277 16.8962C89.1517 17.0702 88.8547 17.2142 88.5367 17.3282C88.2247 17.4422 87.9007 17.5262 87.5647 17.5802C87.2287 17.6402 86.8957 17.6702 86.5657 17.6702C85.9357 17.6702 85.3537 17.5652 84.8197 17.3552C84.2917 17.1392 83.8327 16.8272 83.4427 16.4192C83.0587 16.0052 82.7587 15.4952 82.5427 14.8892C82.3267 14.2832 82.2187 13.5872 82.2187 12.8012C82.2187 12.1652 82.3147 11.5712 82.5067 11.0192C82.7047 10.4672 82.9867 9.99019 83.3527 9.58819C83.7187 9.18019 84.1657 8.86219 84.6937 8.63419C85.2217 8.40019 85.8157 8.28319 86.4757 8.28319ZM86.5117 9.46219C85.7377 9.46219 85.1287 9.68719 84.6847 10.1372C84.2407 10.5812 83.9647 11.1992 83.8567 11.9912H88.8157C88.8157 11.6192 88.7647 11.2802 88.6627 10.9742C88.5607 10.6622 88.4107 10.3952 88.2127 10.1732C88.0147 9.94519 87.7717 9.77119 87.4837 9.65119C87.2017 9.52519 86.8777 9.46219 86.5117 9.46219ZM97.5262 9.93019C97.4542 10.0622 97.3432 10.1282 97.1932 10.1282C97.1032 10.1282 97.0012 10.0952 96.8872 10.0292C96.7732 9.96319 96.6322 9.89119 96.4642 9.81319C96.3022 9.72919 96.1072 9.65419 95.8792 9.58819C95.6512 9.51619 95.3812 9.48019 95.0692 9.48019C94.7992 9.48019 94.5562 9.51619 94.3402 9.58819C94.1242 9.65419 93.9382 9.74719 93.7822 9.86719C93.6322 9.98719 93.5152 10.1282 93.4312 10.2902C93.3532 10.4462 93.3142 10.6172 93.3142 10.8032C93.3142 11.0372 93.3802 11.2322 93.5122 11.3882C93.6502 11.5442 93.8302 11.6792 94.0522 11.7932C94.2742 11.9072 94.5262 12.0092 94.8082 12.0992C95.0902 12.1832 95.3782 12.2762 95.6722 12.3782C95.9722 12.4742 96.2632 12.5822 96.5452 12.7022C96.8272 12.8222 97.0792 12.9722 97.3012 13.1522C97.5232 13.3322 97.7002 13.5542 97.8322 13.8182C97.9702 14.0762 98.0392 14.3882 98.0392 14.7542C98.0392 15.1742 97.9642 15.5642 97.8142 15.9242C97.6642 16.2782 97.4422 16.5872 97.1482 16.8512C96.8542 17.1092 96.4942 17.3132 96.0682 17.4632C95.6422 17.6132 95.1502 17.6882 94.5922 17.6882C93.9562 17.6882 93.3802 17.5862 92.8642 17.3822C92.3482 17.1722 91.9102 16.9052 91.5502 16.5812L91.9282 15.9692C91.9762 15.8912 92.0332 15.8312 92.0992 15.7892C92.1652 15.7472 92.2522 15.7262 92.3602 15.7262C92.4682 15.7262 92.5822 15.7682 92.7022 15.8522C92.8222 15.9362 92.9662 16.0292 93.1342 16.1312C93.3082 16.2332 93.5152 16.3262 93.7552 16.4102C94.0012 16.4942 94.3072 16.5362 94.6732 16.5362C94.9852 16.5362 95.2582 16.4972 95.4922 16.4192C95.7262 16.3352 95.9212 16.2242 96.0772 16.0862C96.2332 15.9482 96.3472 15.7892 96.4192 15.6092C96.4972 15.4292 96.5362 15.2372 96.5362 15.0332C96.5362 14.7812 96.4672 14.5742 96.3292 14.4122C96.1972 14.2442 96.0202 14.1032 95.7982 13.9892C95.5762 13.8692 95.3212 13.7672 95.0332 13.6832C94.7512 13.5932 94.4602 13.5002 94.1602 13.4042C93.8662 13.3082 93.5752 13.2002 93.2872 13.0802C93.0052 12.9542 92.7532 12.7982 92.5312 12.6122C92.3092 12.4262 92.1292 12.1982 91.9912 11.9282C91.8592 11.6522 91.7932 11.3192 91.7932 10.9292C91.7932 10.5812 91.8652 10.2482 92.0092 9.93019C92.1532 9.60619 92.3632 9.32419 92.6392 9.08419C92.9152 8.83819 93.2542 8.64319 93.6562 8.49919C94.0582 8.35519 94.5172 8.28319 95.0332 8.28319C95.6332 8.28319 96.1702 8.37919 96.6442 8.57119C97.1242 8.75719 97.5382 9.01519 97.8862 9.34519L97.5262 9.93019ZM102.874 17.6882C102.154 17.6882 101.599 17.4872 101.209 17.0852C100.825 16.6832 100.633 16.1042 100.633 15.3482V9.76819H99.5349C99.4389 9.76819 99.3579 9.74119 99.2919 9.68719C99.2259 9.62719 99.1929 9.53719 99.1929 9.41719V8.77819L100.687 8.58919L101.056 5.77219C101.068 5.68219 101.107 5.61019 101.173 5.55619C101.239 5.49619 101.323 5.46619 101.425 5.46619H102.235V8.60719H104.845V9.76819H102.235V15.2402C102.235 15.6242 102.328 15.9092 102.514 16.0952C102.7 16.2812 102.94 16.3742 103.234 16.3742C103.402 16.3742 103.546 16.3532 103.666 16.3112C103.792 16.2632 103.9 16.2122 103.99 16.1582C104.08 16.1042 104.155 16.0562 104.215 16.0142C104.281 15.9662 104.338 15.9422 104.386 15.9422C104.47 15.9422 104.545 15.9932 104.611 16.0952L105.079 16.8602C104.803 17.1182 104.47 17.3222 104.08 17.4722C103.69 17.6162 103.288 17.6882 102.874 17.6882Z" fill="#545454"/>
<path fill-rule="evenodd" clip-rule="evenodd" d="M10.4163 21.4229C16.1691 21.4229 20.8327 16.7593 20.8327 11.0066C20.8327 5.25377 16.1691 0.59021 10.4163 0.59021C4.66356 0.59021 0 5.25377 0 11.0066C0 16.7593 4.66356 21.4229 10.4163 21.4229Z" fill="#545454"/>
<path fill-rule="evenodd" clip-rule="evenodd" d="M11.3594 14.1595C13.653 14.1595 15.2088 12.0251 15.2088 9.16801C15.2088 7.00821 13.4162 4.99591 10.6925 4.99591C7.30291 4.99591 5.59375 7.47681 5.59375 9.54558C5.59375 10.7982 6.05798 11.9127 7.05475 12.3281C7.21804 12.3961 7.36437 12.3302 7.41192 12.1458C7.44443 12.0179 7.52307 11.6954 7.55722 11.5612C7.60507 11.3785 7.58667 11.3145 7.45476 11.1552C7.16763 10.8089 6.9844 10.3614 6.9844 9.7268C6.9844 7.88643 8.33261 6.23886 10.4967 6.23886C12.412 6.23886 13.4651 7.43359 13.4651 9.0299C13.4651 11.1298 12.5549 12.9021 11.2032 12.9021C10.4565 12.9021 9.89831 12.272 10.077 11.4993C10.2911 10.5767 10.707 9.58065 10.707 8.91465C10.707 8.31881 10.3936 7.82119 9.74473 7.82119C8.98161 7.82119 8.3688 8.62727 8.3688 9.70655C8.3688 10.3939 8.59673 10.859 8.59673 10.859C8.59673 10.859 7.81582 14.2363 7.6787 14.8275C7.55436 15.366 7.53575 15.9577 7.55323 16.4579C7.60548 16.9065 8.04006 17.2719 8.41707 16.7797C8.68211 16.3472 8.96709 15.8011 9.11454 15.2536C9.20248 14.9297 9.6166 13.2518 9.6166 13.2518C9.86477 13.7345 10.5892 14.1595 11.3594 14.1595Z" fill="white"/>
</svg>
