<svg width="77" height="77" viewBox="0 0 77 77" fill="none" xmlns="http://www.w3.org/2000/svg">
<path d="M38.139 74.2779C58.0982 74.2779 74.2779 58.0982 74.2779 38.139C74.2779 18.18 58.0982 2 38.139 2C18.18 2 2 18.18 2 38.139C2 58.0982 18.18 74.2779 38.139 74.2779Z" stroke="white" stroke-width="4" stroke-linecap="round" stroke-linejoin="round"/>
<path d="M27.2695 49.6049C27.2777 50.0793 27.4157 50.5424 27.6686 50.9437C27.9214 51.3451 28.2795 51.6695 28.7038 51.8814C29.1275 52.1209 29.6058 52.2468 30.0925 52.2468C30.5791 52.2468 31.0575 52.1209 31.4812 51.8814L51.1734 39.7019C51.6018 39.4955 51.9634 39.1724 52.2165 38.7696C52.4694 38.3669 52.6035 37.901 52.6035 37.4254C52.6035 36.9498 52.4694 36.4838 52.2165 36.0811C51.9634 35.6784 51.6018 35.3552 51.1734 35.1488L31.4812 23.0603C31.0575 22.8209 30.5791 22.6951 30.0925 22.6951C29.6058 22.6951 29.1275 22.8209 28.7038 23.0603C28.2795 23.2724 27.9214 23.5968 27.6686 23.9982C27.4157 24.3995 27.2777 24.8625 27.2695 25.3368V49.6049Z" stroke="white" stroke-width="4" stroke-linecap="round" stroke-linejoin="round"/>
</svg>
