<svg width="78" height="78" viewBox="0 0 78 78" fill="none" xmlns="http://www.w3.org/2000/svg">
<path d="M21.8457 59.1418C21.8595 59.9396 22.0917 60.7184 22.5172 61.3934C22.9427 62.0684 23.5452 62.6139 24.2592 62.9704C24.9722 63.3732 25.7772 63.5849 26.5961 63.5849C27.415 63.5849 28.22 63.3732 28.9329 62.9704L62.0705 42.4873C62.7915 42.1402 63.3999 41.5967 63.8259 40.9194C64.2515 40.2421 64.4771 39.4585 64.4771 38.6587C64.4771 37.8588 64.2515 37.0752 63.8259 36.3979C63.3999 35.7206 62.7915 35.1772 62.0705 34.83L28.9329 14.4999C28.22 14.0973 27.415 13.8857 26.5961 13.8857C25.7772 13.8857 24.9722 14.0973 24.2592 14.4999C23.5452 14.8567 22.9427 15.4022 22.5172 16.0773C22.0917 16.7522 21.8595 17.5309 21.8457 18.3286V59.1418Z" fill="#70A2B7"/>
</svg>
