<svg width="25" height="25" viewBox="0 0 25 25" fill="none" xmlns="http://www.w3.org/2000/svg">
<g clip-path="url(#clip0_6148_1093)">
<path d="M0.878906 1.06396V23.983" stroke="#A6A6A6" stroke-width="1.763" stroke-linecap="round" stroke-linejoin="round"/>
<path d="M23.7637 20.7388C23.7645 21.0559 23.6799 21.3675 23.5186 21.6406C23.3571 21.9136 23.1251 22.1381 22.8469 22.2902C22.5789 22.445 22.275 22.5265 21.9654 22.5265C21.656 22.5265 21.352 22.445 21.0839 22.2902L8.40799 14.0042C8.16056 13.8444 7.95711 13.6251 7.81624 13.3664C7.67538 13.1077 7.60156 12.8178 7.60156 12.5233C7.60156 12.2287 7.67538 11.9388 7.81624 11.6801C7.95711 11.4214 8.16056 11.2022 8.40799 11.0423L21.1192 2.82677C21.3873 2.67203 21.6912 2.59058 22.0007 2.59058C22.3102 2.59058 22.6142 2.67203 22.8822 2.82677C23.1605 2.979 23.3924 3.20347 23.5539 3.4765C23.7152 3.74955 23.7998 4.06106 23.7989 4.37821L23.7637 20.7388Z" stroke="#A6A6A6" stroke-width="1.763" stroke-linecap="round" stroke-linejoin="round"/>
</g>
<defs>
<clipPath id="clip0_6148_1093">
<rect width="24.682" height="24.682" fill="white" transform="translate(0 0.182617)"/>
</clipPath>
</defs>
</svg>
