<svg width="29" height="29" viewBox="0 0 29 29" fill="none" xmlns="http://www.w3.org/2000/svg">
<path d="M21.5295 22.5057H25.4354C25.9533 22.5057 26.4501 22.2998 26.8163 21.9337C27.1825 21.5675 27.3883 21.0706 27.3883 20.5527V11.7645C27.3883 11.2465 27.1825 10.7498 26.8163 10.3835C26.4501 10.0173 25.9533 9.81152 25.4354 9.81152H3.95295C3.43499 9.81152 2.93825 10.0173 2.572 10.3835C2.20576 10.7498 2 11.2465 2 11.7645V20.5527C2 21.0706 2.20576 21.5675 2.572 21.9337C2.93825 22.2998 3.43499 22.5057 3.95295 22.5057H7.85884" stroke="#272727" stroke-width="2.26" stroke-linecap="round" stroke-linejoin="round"/>
<path d="M7.85938 19.5759V26.4112C7.85938 26.6702 7.96226 26.9186 8.14538 27.1018C8.32849 27.2848 8.57687 27.3877 8.83585 27.3877H20.5535C20.8125 27.3877 21.0609 27.2848 21.2441 27.1018C21.4271 26.9186 21.53 26.6702 21.53 26.4112V19.5759H7.85938Z" stroke="#272727" stroke-width="2.26" stroke-linecap="round" stroke-linejoin="round"/>
<path d="M21.53 9.81178V2.97647C21.53 2.7175 21.4271 2.46913 21.2441 2.286C21.0609 2.10288 20.8125 2 20.5535 2H8.83585C8.57687 2 8.32849 2.10288 8.14538 2.286C7.96226 2.46913 7.85938 2.7175 7.85938 2.97647V9.81178" stroke="#272727" stroke-width="2.26" stroke-linecap="round" stroke-linejoin="round"/>
<path d="M22.5057 14.694H20.5527" stroke="#272727" stroke-width="2.26" stroke-linecap="round" stroke-linejoin="round"/>
</svg>
