<svg width="85" height="21" viewBox="0 0 85 21" fill="none" xmlns="http://www.w3.org/2000/svg">
<path d="M44.6739 10.7883C44.6739 11.3943 44.6109 11.9703 44.4849 12.5163C44.3649 13.0623 44.1879 13.5723 43.9539 14.0463C43.7199 14.5143 43.4349 14.9403 43.0989 15.3243C42.7629 15.7083 42.3849 16.0413 41.9649 16.3233L45.2769 19.8963H43.8369C43.6209 19.8963 43.4289 19.8663 43.2609 19.8063C43.0929 19.7463 42.9399 19.6413 42.8019 19.4913L40.5339 17.0253C40.1919 17.1333 39.8349 17.2173 39.4629 17.2773C39.0969 17.3373 38.7129 17.3673 38.3109 17.3673C37.3629 17.3673 36.4989 17.2083 35.7189 16.8903C34.9389 16.5663 34.2699 16.1133 33.7119 15.5313C33.1539 14.9493 32.7219 14.2563 32.4159 13.4523C32.1099 12.6423 31.9569 11.7543 31.9569 10.7883C31.9569 9.8223 32.1099 8.9373 32.4159 8.1333C32.7219 7.3233 33.1539 6.6273 33.7119 6.0453C34.2699 5.4573 34.9389 5.0013 35.7189 4.6773C36.4989 4.3533 37.3629 4.1913 38.3109 4.1913C39.2589 4.1913 40.1229 4.3533 40.9029 4.6773C41.6889 5.0013 42.3609 5.4573 42.9189 6.0453C43.4769 6.6273 43.9089 7.3233 44.2149 8.1333C44.5209 8.9373 44.6739 9.8223 44.6739 10.7883ZM42.8829 10.7883C42.8829 9.9963 42.7749 9.2853 42.5589 8.6553C42.3429 8.0253 42.0369 7.4943 41.6409 7.0623C41.2449 6.6243 40.7649 6.2883 40.2009 6.0543C39.6369 5.8203 39.0069 5.7033 38.3109 5.7033C37.6209 5.7033 36.9939 5.8203 36.4299 6.0543C35.8659 6.2883 35.3829 6.6243 34.9809 7.0623C34.5849 7.4943 34.2789 8.0253 34.0629 8.6553C33.8469 9.2853 33.7389 9.9963 33.7389 10.7883C33.7389 11.5803 33.8469 12.2913 34.0629 12.9213C34.2789 13.5453 34.5849 14.0763 34.9809 14.5143C35.3829 14.9463 35.8659 15.2793 36.4299 15.5133C36.9939 15.7413 37.6209 15.8553 38.3109 15.8553C39.0069 15.8553 39.6369 15.7413 40.2009 15.5133C40.7649 15.2793 41.2449 14.9463 41.6409 14.5143C42.0369 14.0763 42.3429 13.5453 42.5589 12.9213C42.7749 12.2913 42.8829 11.5803 42.8829 10.7883ZM48.1902 8.1153V13.9293C48.1902 14.6193 48.3492 15.1533 48.6672 15.5313C48.9852 15.9093 49.4652 16.0983 50.1072 16.0983C50.5752 16.0983 51.0162 15.9873 51.4302 15.7653C51.8442 15.5433 52.2252 15.2343 52.5732 14.8383V8.1153H54.1752V17.2323H53.2212C52.9932 17.2323 52.8492 17.1213 52.7892 16.8993L52.6632 15.9183C52.2672 16.3563 51.8232 16.7103 51.3312 16.9803C50.8392 17.2443 50.2752 17.3763 49.6392 17.3763C49.1412 17.3763 48.7002 17.2953 48.3162 17.1333C47.9382 16.9653 47.6202 16.7313 47.3622 16.4313C47.1042 16.1313 46.9092 15.7683 46.7772 15.3423C46.6512 14.9163 46.5882 14.4453 46.5882 13.9293V8.1153H48.1902ZM60.4962 7.9713C61.1622 7.9713 61.7622 8.0823 62.2962 8.3043C62.8362 8.5263 63.2922 8.8413 63.6642 9.2493C64.0422 9.6573 64.3302 10.1523 64.5282 10.7343C64.7322 11.3103 64.8342 11.9553 64.8342 12.6693C64.8342 13.3893 64.7322 14.0373 64.5282 14.6133C64.3302 15.1893 64.0422 15.6813 63.6642 16.0893C63.2922 16.4973 62.8362 16.8123 62.2962 17.0343C61.7622 17.2503 61.1622 17.3583 60.4962 17.3583C59.8302 17.3583 59.2272 17.2503 58.6872 17.0343C58.1532 16.8123 57.6972 16.4973 57.3192 16.0893C56.9412 15.6813 56.6502 15.1893 56.4462 14.6133C56.2422 14.0373 56.1402 13.3893 56.1402 12.6693C56.1402 11.9553 56.2422 11.3103 56.4462 10.7343C56.6502 10.1523 56.9412 9.6573 57.3192 9.2493C57.6972 8.8413 58.1532 8.5263 58.6872 8.3043C59.2272 8.0823 59.8302 7.9713 60.4962 7.9713ZM60.4962 16.1073C61.3962 16.1073 62.0682 15.8073 62.5122 15.2073C62.9562 14.6013 63.1782 13.7583 63.1782 12.6783C63.1782 11.5923 62.9562 10.7463 62.5122 10.1403C62.0682 9.5343 61.3962 9.2313 60.4962 9.2313C60.0402 9.2313 59.6442 9.3093 59.3082 9.4653C58.9722 9.6213 58.6902 9.8463 58.4622 10.1403C58.2402 10.4343 58.0722 10.7973 57.9582 11.2293C57.8502 11.6553 57.7962 12.1383 57.7962 12.6783C57.7962 13.2183 57.8502 13.7013 57.9582 14.1273C58.0722 14.5533 58.2402 14.9133 58.4622 15.2073C58.6902 15.4953 58.9722 15.7173 59.3082 15.8733C59.6442 16.0293 60.0402 16.1073 60.4962 16.1073ZM66.8081 17.2323V8.1153H67.7261C67.9001 8.1153 68.0201 8.1483 68.0861 8.2143C68.1521 8.2803 68.1971 8.3943 68.2211 8.5563L68.3291 9.9783C68.6411 9.3423 69.0251 8.8473 69.4811 8.4933C69.9431 8.1333 70.4831 7.9533 71.1011 7.9533C71.3531 7.9533 71.5811 7.9833 71.7851 8.0433C71.9891 8.0973 72.1781 8.1753 72.3521 8.2773L72.1451 9.4743C72.1031 9.6243 72.0101 9.6993 71.8661 9.6993C71.7821 9.6993 71.6531 9.6723 71.4791 9.6183C71.3051 9.5583 71.0621 9.5283 70.7501 9.5283C70.1921 9.5283 69.7241 9.6903 69.3461 10.0143C68.9741 10.3383 68.6621 10.8093 68.4101 11.4273V17.2323H66.8081ZM80.4299 17.2323H79.7189C79.5629 17.2323 79.4369 17.2083 79.3409 17.1603C79.2449 17.1123 79.1819 17.0103 79.1519 16.8543L78.9719 16.0083C78.7319 16.2243 78.4979 16.4193 78.2699 16.5933C78.0419 16.7613 77.8019 16.9053 77.5499 17.0253C77.2979 17.1393 77.0279 17.2263 76.7399 17.2863C76.4579 17.3463 76.1429 17.3763 75.7949 17.3763C75.4409 17.3763 75.1079 17.3283 74.7959 17.2323C74.4899 17.1303 74.2229 16.9803 73.9949 16.7823C73.7669 16.5843 73.5839 16.3353 73.4459 16.0353C73.3139 15.7293 73.2479 15.3693 73.2479 14.9553C73.2479 14.5953 73.3469 14.2503 73.5449 13.9203C73.7429 13.5843 74.0609 13.2873 74.4989 13.0293C74.9429 12.7713 75.5219 12.5613 76.2359 12.3993C76.9499 12.2313 77.8229 12.1353 78.8549 12.1113V11.4003C78.8549 10.6923 78.7019 10.1583 78.3959 9.7983C78.0959 9.4323 77.6489 9.2493 77.0549 9.2493C76.6649 9.2493 76.3349 9.3003 76.0649 9.4023C75.8009 9.4983 75.5699 9.6093 75.3719 9.7353C75.1799 9.8553 75.0119 9.9663 74.8679 10.0683C74.7299 10.1643 74.5919 10.2123 74.4539 10.2123C74.3459 10.2123 74.2499 10.1853 74.1659 10.1313C74.0879 10.0713 74.0249 9.9993 73.9769 9.9153L73.6889 9.4023C74.1929 8.9163 74.7359 8.5533 75.3179 8.3133C75.8999 8.0733 76.5449 7.9533 77.2529 7.9533C77.7629 7.9533 78.2159 8.0373 78.6119 8.2053C79.0079 8.3733 79.3409 8.6073 79.6109 8.9073C79.8809 9.2073 80.0849 9.5703 80.2229 9.9963C80.3609 10.4223 80.4299 10.8903 80.4299 11.4003V17.2323ZM76.2719 16.2513C76.5539 16.2513 76.8119 16.2243 77.0459 16.1703C77.2799 16.1103 77.4989 16.0293 77.7029 15.9273C77.9129 15.8193 78.1109 15.6903 78.2969 15.5403C78.4889 15.3903 78.6749 15.2193 78.8549 15.0273V13.1283C78.1169 13.1523 77.4899 13.2123 76.9739 13.3083C76.4579 13.3983 76.0379 13.5183 75.7139 13.6683C75.3899 13.8183 75.1529 13.9953 75.0029 14.1993C74.8589 14.4033 74.7869 14.6313 74.7869 14.8833C74.7869 15.1233 74.8259 15.3303 74.9039 15.5043C74.9819 15.6783 75.0869 15.8223 75.2189 15.9363C75.3509 16.0443 75.5069 16.1253 75.6869 16.1793C75.8669 16.2273 76.0619 16.2513 76.2719 16.2513Z" fill="#545454"/>
<path d="M17.6348 17.4398C18.1386 16.8352 18.0378 16.3314 18.0378 16.3314H19.5492C19.5492 16.3314 19.5492 16.7345 19.4484 17.2383C19.3477 17.6414 19.2469 17.9436 19.1462 18.2459C18.9447 18.9513 17.9371 19.7574 17.9371 19.7574C16.8287 20.6643 15.6197 20.5635 15.6197 20.5635C15.6197 20.5635 14.209 20.765 13.1007 20.0597C11.9924 19.3543 11.0856 17.8429 11.0856 17.8429C11.0856 17.8429 6.65223 19.052 3.22647 16.1299C-0.199282 13.2078 0.00223286 9.68102 0.00223286 9.37873C0.00223286 8.67338 0.405263 0.813811 8.66738 0.51152C13.5037 0.309992 16.1234 3.3329 17.131 5.75123C17.8363 7.46422 17.8363 8.77415 17.8363 8.97567C17.8363 9.1772 17.8363 10.0841 17.6348 10.9909C17.534 11.8978 17.131 12.9055 16.8287 13.4093C16.5265 13.9131 16.1234 14.6184 15.6197 15.1223C15.1159 15.7268 14.5113 16.2307 14.4106 16.3314C14.4106 16.3314 15.4181 17.5406 16.0227 17.7421C16.2242 17.7421 17.131 18.0444 17.6348 17.4398ZM10.5818 15.9284C10.6825 15.8276 10.2795 15.3238 10.078 15.0215C9.87647 14.7192 10.1787 15.1223 9.37268 14.0139C9.07041 13.51 8.66738 13.3085 8.06284 13.2078H7.35753C6.85375 13.2078 6.55147 13.3085 6.45072 13.3085C6.45072 13.2078 6.2492 13.0062 6.14844 12.8047C6.04769 12.6032 6.04769 12.3009 6.04769 12.3009C6.04769 12.0994 7.55905 11.394 9.27193 11.394C10.6825 11.394 11.6901 12.2001 12.0931 12.6032C12.4962 12.9055 12.5969 13.3085 13 13.6108C13 13.6108 13.1007 13.6108 13.1007 13.7116C13.5037 14.0139 14.0075 10.6887 13.9068 8.47186C13.806 6.25505 13.7053 5.14665 12.8992 4.03825C12.1939 3.03061 10.6825 2.2245 9.27193 2.2245C8.56662 2.2245 6.2492 2.32527 5.24162 4.03825C4.03253 6.05353 4.23405 9.68102 4.23405 9.68102C4.23405 9.68102 3.93178 12.9055 5.64466 14.6184C7.35753 16.3314 9.07041 16.0291 9.87647 16.0291L10.5818 15.9284Z" fill="#545454"/>
</svg>
