<svg width="23" height="19" viewBox="0 0 23 19" fill="none" xmlns="http://www.w3.org/2000/svg">
<path d="M8.84082 18.4119C8.47156 18.4119 8.17188 18.1123 8.17188 17.743V1.20667C8.17188 0.837406 8.47156 0.53772 8.84082 0.53772C9.21008 0.53772 9.50977 0.837406 9.50977 1.20667V17.743C9.50977 18.1123 9.21008 18.4119 8.84082 18.4119Z" fill="#545454"/>
<path d="M16.1983 4.10995C15.829 4.10995 15.5293 3.81027 15.5293 3.44101V1.87561H2.15039V3.44101C2.15039 3.81027 1.85071 4.10995 1.48145 4.10995C1.11219 4.10995 0.8125 3.81027 0.8125 3.44101V1.20667C0.8125 0.837406 1.11219 0.53772 1.48145 0.53772H16.1983C16.5675 0.53772 16.8672 0.837406 16.8672 1.20667V3.44101C16.8672 3.81027 16.5675 4.10995 16.1983 4.10995Z" fill="#545454"/>
<path d="M10.8467 18.4119H6.83301C6.46375 18.4119 6.16406 18.1122 6.16406 17.7429C6.16406 17.3737 6.46375 17.074 6.83301 17.074H10.8467C11.2159 17.074 11.5156 17.3737 11.5156 17.7429C11.5156 18.1122 11.2159 18.4119 10.8467 18.4119Z" fill="#545454"/>
<path d="M13.9697 11.4843C13.6005 11.4843 13.3008 11.1846 13.3008 10.8154V9.25098C13.3008 8.88172 13.6005 8.58203 13.9697 8.58203H21.5511C21.9203 8.58203 22.22 8.88172 22.22 9.25098V10.5915C22.22 10.9607 21.9203 11.2604 21.5511 11.2604C21.1818 11.2604 20.8821 10.9607 20.8821 10.5915V9.91992H14.6387V10.8154C14.6387 11.1846 14.339 11.4843 13.9697 11.4843Z" fill="#545454"/>
<path d="M17.7588 18.4119C17.3895 18.4119 17.0898 18.1122 17.0898 17.743V9.25098C17.0898 8.88172 17.3895 8.58203 17.7588 8.58203C18.128 8.58203 18.4277 8.88172 18.4277 9.25098V17.743C18.4277 18.1122 18.128 18.4119 17.7588 18.4119Z" fill="#545454"/>
<path d="M18.8753 18.4119H16.6455C16.2762 18.4119 15.9766 18.1122 15.9766 17.743C15.9766 17.3737 16.2762 17.074 16.6455 17.074H18.8753C19.2445 17.074 19.5442 17.3737 19.5442 17.743C19.5442 18.1122 19.2445 18.4119 18.8753 18.4119Z" fill="#545454"/>
</svg>
