<svg width="21" height="20" viewBox="0 0 21 20" fill="none" xmlns="http://www.w3.org/2000/svg">
<path d="M11.6217 17.7411C11.69 17.9697 11.7157 18.1154 11.8321 18.2593C11.9485 18.403 12.1172 18.4946 12.3012 18.5139C12.4852 18.5332 12.6693 18.4787 12.8131 18.3623C12.9569 18.2457 13.0395 18.21 13.1657 17.9033C13.292 17.5964 20.1185 2.75216 20.1185 2.75216C20.2285 2.51538 20.2698 2.25252 20.2378 1.99347C20.2058 1.73443 20.1018 1.48956 19.9376 1.28672C19.7734 1.08389 19.5555 0.931208 19.3088 0.84604C19.0621 0.760873 18.7965 0.746633 18.5421 0.804939C18.5421 0.804939 2.4731 4.50283 2.2554 4.54576C2.03769 4.58869 1.87935 4.65693 1.73552 4.77338C1.59169 4.88982 1.50011 5.05862 1.48074 5.24263C1.46137 5.42664 1.51579 5.61077 1.63223 5.75454C1.74866 5.89831 1.81923 5.93579 2.09562 6.06342C2.37201 6.19106 9.66178 9.60886 9.66178 9.60886C9.66178 9.60886 11.5534 17.5126 11.6217 17.7411Z" stroke="#545454" stroke-width="1.505" stroke-linecap="round" stroke-linejoin="round"/>
</svg>
