<svg width="46" height="21" viewBox="0 0 46 21" fill="none" xmlns="http://www.w3.org/2000/svg">
<path fill-rule="evenodd" clip-rule="evenodd" d="M45.4651 14.4204C45.2758 17.8031 42.4526 20.4343 39.0653 20.3874H23.6822C22.9776 20.3801 22.4089 19.8086 22.4052 19.1049V2.5413C22.3831 1.95976 22.7203 1.42414 23.255 1.19262C23.255 1.19262 24.6698 0.211431 27.6502 0.211431C29.4711 0.209593 31.258 0.70019 32.8226 1.63269C35.2903 3.08427 37.0367 5.50418 37.6385 8.3026C38.1695 8.15285 38.7189 8.07843 39.2701 8.08027C40.9422 8.07016 42.5454 8.73899 43.714 9.93516C44.8826 11.1304 45.5147 12.7492 45.466 14.4204H45.4651ZM20.4851 3.58864C20.949 9.20662 21.2862 14.3303 20.4851 19.9299C20.4575 20.1826 20.2434 20.3746 19.989 20.3746C19.7336 20.3746 19.5204 20.1826 19.4919 19.9299C18.745 14.3781 19.0702 9.15793 19.4919 3.58864C19.4708 3.39847 19.5608 3.21197 19.7234 3.11091C19.8851 3.00985 20.0909 3.00985 20.2545 3.11091C20.4162 3.21197 20.5062 3.39847 20.4851 3.58864ZM17.3724 19.9354C17.3339 20.1918 17.1134 20.3801 16.8552 20.3801C16.5961 20.3801 16.3756 20.1918 16.337 19.9354C15.7803 15.1452 15.7803 10.3063 16.337 5.51612C16.3655 5.24969 16.5906 5.04757 16.858 5.04757C17.1253 5.04757 17.3495 5.24969 17.3789 5.51612C17.9972 10.3027 17.9944 15.1489 17.3724 19.9354ZM14.2534 5.02828C14.7587 10.1759 14.9884 14.7878 14.2479 19.9235C14.2479 20.1991 14.0237 20.4233 13.7481 20.4233C13.4725 20.4233 13.2483 20.1991 13.2483 19.9235C12.5317 14.854 12.7724 10.1097 13.2483 5.02828C13.2759 4.77104 13.4927 4.57811 13.7508 4.57811C14.009 4.57811 14.2258 4.77104 14.2534 5.02828ZM11.1297 19.9419C11.1003 20.2009 10.8817 20.3975 10.6199 20.3975C10.3589 20.3975 10.1394 20.2009 10.1118 19.9419C9.53668 15.4723 9.53668 10.9476 10.1118 6.47894C10.1118 6.19322 10.3433 5.9617 10.629 5.9617C10.9148 5.9617 11.1472 6.19322 11.1472 6.47894C11.7581 10.9458 11.7517 15.476 11.1288 19.9419H11.1297ZM8.00977 9.84513C8.79895 13.3363 8.44341 16.4195 7.98037 19.9777C7.9427 20.2147 7.73783 20.3893 7.49804 20.3893C7.25917 20.3893 7.0543 20.2147 7.01664 19.9777C6.59494 16.4682 6.24583 13.3124 6.98631 9.84421C6.98631 9.56216 7.21599 9.33248 7.49804 9.33248C7.78101 9.33248 8.00977 9.56216 8.00977 9.84513ZM4.89714 9.31503C5.62018 12.8916 5.38499 15.9197 4.87877 19.5082C4.81906 20.0383 3.91044 20.0438 3.86175 19.5082C3.40422 15.9739 3.18741 12.8549 3.84338 9.31503C3.87277 9.04584 4.10062 8.84189 4.37072 8.84189C4.64174 8.84189 4.86866 9.04584 4.89714 9.31503ZM1.75512 11.0487C2.51307 13.4208 2.25399 15.3483 1.72481 17.7801C1.69725 18.03 1.48594 18.2193 1.23421 18.2193C0.982478 18.2193 0.771176 18.03 0.742696 17.7801C0.285173 15.396 0.0995932 13.4272 0.701355 11.0487C0.728916 10.7795 0.956757 10.5755 1.22778 10.5755C1.4988 10.5755 1.72572 10.7795 1.7542 11.0487H1.75512Z" fill="white"/>
</svg>
