<svg width="29" height="22" viewBox="0 0 29 22" fill="none" xmlns="http://www.w3.org/2000/svg">
<path d="M25.0898 17.2032C26.3746 15.1853 27.0681 12.8771 27.0983 10.5183C27.0681 8.15954 26.3746 5.8514 25.0898 3.8335" stroke="#83888A" stroke-width="2.00842" stroke-linecap="round" stroke-linejoin="round"/>
<path d="M21.0859 7.65369C21.7841 8.45642 22.1422 9.47804 22.0901 10.5186C22.1422 11.5592 21.7841 12.5808 21.0859 13.3836" stroke="#83888A" stroke-width="2.00842" stroke-linecap="round" stroke-linejoin="round"/>
<path d="M6.02105 6.69866H3.00842C1.9145 6.69866 1 7.56832 1 8.60861V12.4285C1 13.4688 1.9145 14.3385 3.00842 14.3385H6.02105L13.874 19.7054C15.17 20.5582 17.0323 19.6603 17.0674 18.1583V2.87871C17.105 1.37588 15.3544 0.476502 14.0547 1.33165L6.02105 6.69866Z" stroke="#83888A" stroke-width="2.00842" stroke-linecap="round" stroke-linejoin="round"/>
</svg>
