<svg width="29" height="29" viewBox="0 0 29 29" fill="none" xmlns="http://www.w3.org/2000/svg">
<path d="M23.0344 13.0703C18.5638 10.4153 11.1894 10.1712 6.92163 11.4666C6.23631 11.6745 5.51157 11.2876 5.30389 10.6023C5.09621 9.91664 5.48275 9.19239 6.16857 8.98405C11.0677 7.4968 19.2118 7.78415 24.3585 10.8393C24.9749 11.2051 25.1772 12.0013 24.8118 12.6167C24.4461 13.2331 23.6493 13.4363 23.0344 13.0703ZM22.888 17.0027C22.5743 17.5117 21.9089 17.6713 21.4006 17.3588C17.6734 15.0678 11.99 14.4042 7.58045 15.7425C7.00858 15.9155 6.40457 15.593 6.23101 15.0223C6.0586 14.4504 6.38122 13.8476 6.95194 13.6737C11.9893 12.1452 18.2514 12.8855 22.5323 15.5161C23.0405 15.8292 23.2005 16.4951 22.888 17.0027ZM21.1909 20.7793C20.9417 21.188 20.4096 21.3161 20.0023 21.067C16.7453 19.0764 12.646 18.6269 7.81827 19.7296C7.35306 19.8363 6.8895 19.5448 6.78334 19.0796C6.67685 18.6145 6.96717 18.1508 7.43355 18.0446C12.7165 16.8369 17.2485 17.3567 20.9041 19.5905C21.3117 19.8394 21.44 20.3719 21.1909 20.7793ZM14.8303 0.774902C7.17055 0.774902 0.960938 6.98438 0.960938 14.644C0.960938 22.3045 7.17055 28.5134 14.8303 28.5134C22.4902 28.5134 28.6995 22.3045 28.6995 14.644C28.6995 6.98438 22.4902 0.774902 14.8303 0.774902Z" fill="white"/>
</svg>
