<svg width="106" height="22" viewBox="0 0 106 22" fill="none" xmlns="http://www.w3.org/2000/svg">
<path d="M41.7895 4.2927V5.7597H37.6225V17.1897H35.8765V5.7597H31.6915V4.2927H41.7895ZM45.0812 7.9287C45.6272 7.9287 46.1312 8.0217 46.5932 8.2077C47.0552 8.3877 47.4542 8.6517 47.7902 8.9997C48.1262 9.3417 48.3872 9.7677 48.5732 10.2777C48.7652 10.7817 48.8612 11.3577 48.8612 12.0057C48.8612 12.2577 48.8342 12.4257 48.7802 12.5097C48.7262 12.5937 48.6242 12.6357 48.4742 12.6357H42.4082C42.4202 13.2117 42.4982 13.7127 42.6422 14.1387C42.7862 14.5647 42.9842 14.9217 43.2362 15.2097C43.4882 15.4917 43.7882 15.7047 44.1362 15.8487C44.4842 15.9867 44.8742 16.0557 45.3062 16.0557C45.7082 16.0557 46.0532 16.0107 46.3412 15.9207C46.6352 15.8247 46.8872 15.7227 47.0972 15.6147C47.3072 15.5067 47.4812 15.4077 47.6192 15.3177C47.7632 15.2217 47.8862 15.1737 47.9882 15.1737C48.1202 15.1737 48.2222 15.2247 48.2942 15.3267L48.7442 15.9117C48.5462 16.1517 48.3092 16.3617 48.0332 16.5417C47.7572 16.7157 47.4602 16.8597 47.1422 16.9737C46.8302 17.0877 46.5062 17.1717 46.1702 17.2257C45.8342 17.2857 45.5012 17.3157 45.1712 17.3157C44.5412 17.3157 43.9592 17.2107 43.4252 17.0007C42.8972 16.7847 42.4382 16.4727 42.0482 16.0647C41.6642 15.6507 41.3642 15.1407 41.1482 14.5347C40.9322 13.9287 40.8242 13.2327 40.8242 12.4467C40.8242 11.8107 40.9202 11.2167 41.1122 10.6647C41.3102 10.1127 41.5922 9.6357 41.9582 9.2337C42.3242 8.8257 42.7712 8.5077 43.2992 8.2797C43.8272 8.0457 44.4212 7.9287 45.0812 7.9287ZM45.1172 9.1077C44.3432 9.1077 43.7342 9.3327 43.2902 9.7827C42.8462 10.2267 42.5702 10.8447 42.4622 11.6367H47.4212C47.4212 11.2647 47.3702 10.9257 47.2682 10.6197C47.1662 10.3077 47.0162 10.0407 46.8182 9.8187C46.6202 9.5907 46.3772 9.4167 46.0892 9.2967C45.8072 9.1707 45.4832 9.1077 45.1172 9.1077ZM52.6937 3.9327V17.1897H51.0917V3.9327H52.6937ZM59.1261 7.9287C59.6721 7.9287 60.1761 8.0217 60.6381 8.2077C61.1001 8.3877 61.4991 8.6517 61.8351 8.9997C62.1711 9.3417 62.4321 9.7677 62.6181 10.2777C62.8101 10.7817 62.9061 11.3577 62.9061 12.0057C62.9061 12.2577 62.8791 12.4257 62.8251 12.5097C62.7711 12.5937 62.6691 12.6357 62.5191 12.6357H56.4531C56.4651 13.2117 56.5431 13.7127 56.6871 14.1387C56.8311 14.5647 57.0291 14.9217 57.2811 15.2097C57.5331 15.4917 57.8331 15.7047 58.1811 15.8487C58.5291 15.9867 58.9191 16.0557 59.3511 16.0557C59.7531 16.0557 60.0981 16.0107 60.3861 15.9207C60.6801 15.8247 60.9321 15.7227 61.1421 15.6147C61.3521 15.5067 61.5261 15.4077 61.6641 15.3177C61.8081 15.2217 61.9311 15.1737 62.0331 15.1737C62.1651 15.1737 62.2671 15.2247 62.3391 15.3267L62.7891 15.9117C62.5911 16.1517 62.3541 16.3617 62.0781 16.5417C61.8021 16.7157 61.5051 16.8597 61.1871 16.9737C60.8751 17.0877 60.5511 17.1717 60.2151 17.2257C59.8791 17.2857 59.5461 17.3157 59.2161 17.3157C58.5861 17.3157 58.0041 17.2107 57.4701 17.0007C56.9421 16.7847 56.4831 16.4727 56.0931 16.0647C55.7091 15.6507 55.4091 15.1407 55.1931 14.5347C54.9771 13.9287 54.8691 13.2327 54.8691 12.4467C54.8691 11.8107 54.9651 11.2167 55.1571 10.6647C55.3551 10.1127 55.6371 9.6357 56.0031 9.2337C56.3691 8.8257 56.8161 8.5077 57.3441 8.2797C57.8721 8.0457 58.4661 7.9287 59.1261 7.9287ZM59.1621 9.1077C58.3881 9.1077 57.7791 9.3327 57.3351 9.7827C56.8911 10.2267 56.6151 10.8447 56.5071 11.6367H61.4661C61.4661 11.2647 61.4151 10.9257 61.3131 10.6197C61.2111 10.3077 61.0611 10.0407 60.8631 9.8187C60.6651 9.5907 60.4221 9.4167 60.1341 9.2967C59.8521 9.1707 59.5281 9.1077 59.1621 9.1077ZM68.0256 7.9197C68.4216 7.9197 68.7906 7.9647 69.1326 8.0547C69.4806 8.1387 69.7956 8.2647 70.0776 8.4327H72.5526V9.0267C72.5526 9.2247 72.4266 9.3507 72.1746 9.4047L71.1396 9.5487C71.3436 9.9387 71.4456 10.3737 71.4456 10.8537C71.4456 11.2977 71.3586 11.7027 71.1846 12.0687C71.0166 12.4287 70.7796 12.7377 70.4736 12.9957C70.1736 13.2537 69.8136 13.4517 69.3936 13.5897C68.9796 13.7277 68.5236 13.7967 68.0256 13.7967C67.5996 13.7967 67.1976 13.7457 66.8196 13.6437C66.6276 13.7637 66.4806 13.8927 66.3786 14.0307C66.2826 14.1687 66.2346 14.3037 66.2346 14.4357C66.2346 14.6517 66.3216 14.8167 66.4956 14.9307C66.6696 15.0387 66.9006 15.1167 67.1886 15.1647C67.4766 15.2127 67.8036 15.2427 68.1696 15.2547C68.5356 15.2667 68.9076 15.2877 69.2856 15.3177C69.6696 15.3417 70.0446 15.3867 70.4106 15.4527C70.7766 15.5187 71.1036 15.6267 71.3916 15.7767C71.6796 15.9267 71.9106 16.1337 72.0846 16.3977C72.2586 16.6617 72.3456 17.0037 72.3456 17.4237C72.3456 17.8137 72.2466 18.1917 72.0486 18.5577C71.8566 18.9237 71.5776 19.2477 71.2116 19.5297C70.8456 19.8177 70.3986 20.0457 69.8706 20.2137C69.3426 20.3877 68.7456 20.4747 68.0796 20.4747C67.4136 20.4747 66.8286 20.4087 66.3246 20.2767C65.8266 20.1447 65.4126 19.9677 65.0826 19.7457C64.7526 19.5237 64.5036 19.2657 64.3356 18.9717C64.1736 18.6837 64.0926 18.3807 64.0926 18.0627C64.0926 17.6127 64.2336 17.2317 64.5156 16.9197C64.8036 16.6017 65.1966 16.3497 65.6946 16.1637C65.4366 16.0437 65.2296 15.8847 65.0736 15.6867C64.9236 15.4827 64.8486 15.2127 64.8486 14.8767C64.8486 14.7447 64.8726 14.6097 64.9206 14.4717C64.9686 14.3277 65.0406 14.1867 65.1366 14.0487C65.2386 13.9107 65.3616 13.7787 65.5056 13.6527C65.6496 13.5267 65.8176 13.4157 66.0096 13.3197C65.5596 13.0677 65.2056 12.7347 64.9476 12.3207C64.6956 11.9007 64.5696 11.4117 64.5696 10.8537C64.5696 10.4097 64.6536 10.0077 64.8216 9.6477C64.9956 9.2817 65.2356 8.9727 65.5416 8.7207C65.8476 8.4627 66.2106 8.2647 66.6306 8.1267C67.0566 7.9887 67.5216 7.9197 68.0256 7.9197ZM70.8696 17.6847C70.8696 17.4567 70.8066 17.2737 70.6806 17.1357C70.5546 16.9977 70.3836 16.8927 70.1676 16.8207C69.9516 16.7427 69.7026 16.6857 69.4206 16.6497C69.1386 16.6137 68.8416 16.5897 68.5296 16.5777C68.2176 16.5597 67.8996 16.5417 67.5756 16.5237C67.2516 16.5057 66.9426 16.4727 66.6486 16.4247C66.3066 16.5867 66.0276 16.7847 65.8116 17.0187C65.6016 17.2527 65.4966 17.5317 65.4966 17.8557C65.4966 18.0597 65.5476 18.2487 65.6496 18.4227C65.7576 18.6027 65.9196 18.7557 66.1356 18.8817C66.3516 19.0137 66.6216 19.1157 66.9456 19.1877C67.2756 19.2657 67.6626 19.3047 68.1066 19.3047C68.5386 19.3047 68.9256 19.2657 69.2676 19.1877C69.6096 19.1097 69.8976 18.9987 70.1316 18.8547C70.3716 18.7107 70.5546 18.5397 70.6806 18.3417C70.8066 18.1437 70.8696 17.9247 70.8696 17.6847ZM68.0256 12.7347C68.3496 12.7347 68.6346 12.6897 68.8806 12.5997C69.1326 12.5097 69.3426 12.3837 69.5106 12.2217C69.6786 12.0597 69.8046 11.8677 69.8886 11.6457C69.9726 11.4177 70.0146 11.1687 70.0146 10.8987C70.0146 10.3407 69.8436 9.8967 69.5016 9.5667C69.1656 9.2367 68.6736 9.0717 68.0256 9.0717C67.3836 9.0717 66.8916 9.2367 66.5496 9.5667C66.2136 9.8967 66.0456 10.3407 66.0456 10.8987C66.0456 11.1687 66.0876 11.4177 66.1716 11.6457C66.2616 11.8677 66.3906 12.0597 66.5586 12.2217C66.7266 12.3837 66.9336 12.5097 67.1796 12.5997C67.4256 12.6897 67.7076 12.7347 68.0256 12.7347ZM74.1499 17.1897V8.0727H75.0679C75.2419 8.0727 75.3619 8.1057 75.4279 8.1717C75.4939 8.2377 75.5389 8.3517 75.5629 8.5137L75.6709 9.9357C75.9829 9.2997 76.3669 8.8047 76.8229 8.4507C77.2849 8.0907 77.8249 7.9107 78.4429 7.9107C78.6949 7.9107 78.9229 7.9407 79.1269 8.0007C79.3309 8.0547 79.5199 8.1327 79.6939 8.2347L79.4869 9.4317C79.4449 9.5817 79.3519 9.6567 79.2079 9.6567C79.1239 9.6567 78.9949 9.6297 78.8209 9.5757C78.6469 9.5157 78.4039 9.4857 78.0919 9.4857C77.5339 9.4857 77.0659 9.6477 76.6879 9.9717C76.3159 10.2957 76.0039 10.7667 75.7519 11.3847V17.1897H74.1499ZM87.7717 17.1897H87.0607C86.9047 17.1897 86.7787 17.1657 86.6827 17.1177C86.5867 17.0697 86.5237 16.9677 86.4937 16.8117L86.3137 15.9657C86.0737 16.1817 85.8397 16.3767 85.6117 16.5507C85.3837 16.7187 85.1437 16.8627 84.8917 16.9827C84.6397 17.0967 84.3697 17.1837 84.0817 17.2437C83.7997 17.3037 83.4847 17.3337 83.1367 17.3337C82.7827 17.3337 82.4497 17.2857 82.1377 17.1897C81.8317 17.0877 81.5647 16.9377 81.3367 16.7397C81.1087 16.5417 80.9257 16.2927 80.7877 15.9927C80.6557 15.6867 80.5897 15.3267 80.5897 14.9127C80.5897 14.5527 80.6887 14.2077 80.8867 13.8777C81.0847 13.5417 81.4027 13.2447 81.8407 12.9867C82.2847 12.7287 82.8637 12.5187 83.5777 12.3567C84.2917 12.1887 85.1647 12.0927 86.1967 12.0687V11.3577C86.1967 10.6497 86.0437 10.1157 85.7377 9.7557C85.4377 9.3897 84.9907 9.2067 84.3967 9.2067C84.0067 9.2067 83.6767 9.2577 83.4067 9.3597C83.1427 9.4557 82.9117 9.5667 82.7137 9.6927C82.5217 9.8127 82.3537 9.9237 82.2097 10.0257C82.0717 10.1217 81.9337 10.1697 81.7957 10.1697C81.6877 10.1697 81.5917 10.1427 81.5077 10.0887C81.4297 10.0287 81.3667 9.9567 81.3187 9.8727L81.0307 9.3597C81.5347 8.8737 82.0777 8.5107 82.6597 8.2707C83.2417 8.0307 83.8867 7.9107 84.5947 7.9107C85.1047 7.9107 85.5577 7.9947 85.9537 8.1627C86.3497 8.3307 86.6827 8.5647 86.9527 8.8647C87.2227 9.1647 87.4267 9.5277 87.5647 9.9537C87.7027 10.3797 87.7717 10.8477 87.7717 11.3577V17.1897ZM83.6137 16.2087C83.8957 16.2087 84.1537 16.1817 84.3877 16.1277C84.6217 16.0677 84.8407 15.9867 85.0447 15.8847C85.2547 15.7767 85.4527 15.6477 85.6387 15.4977C85.8307 15.3477 86.0167 15.1767 86.1967 14.9847V13.0857C85.4587 13.1097 84.8317 13.1697 84.3157 13.2657C83.7997 13.3557 83.3797 13.4757 83.0557 13.6257C82.7317 13.7757 82.4947 13.9527 82.3447 14.1567C82.2007 14.3607 82.1287 14.5887 82.1287 14.8407C82.1287 15.0807 82.1677 15.2877 82.2457 15.4617C82.3237 15.6357 82.4287 15.7797 82.5607 15.8937C82.6927 16.0017 82.8487 16.0827 83.0287 16.1367C83.2087 16.1847 83.4037 16.2087 83.6137 16.2087ZM90.1988 17.1897V8.0727H91.1528C91.3808 8.0727 91.5248 8.1837 91.5848 8.4057L91.7018 9.3417C92.0378 8.9277 92.4128 8.5887 92.8268 8.3247C93.2468 8.0607 93.7328 7.9287 94.2848 7.9287C94.9028 7.9287 95.4008 8.0997 95.7788 8.4417C96.1628 8.7837 96.4388 9.2457 96.6068 9.8277C96.7328 9.4977 96.8978 9.2127 97.1018 8.9727C97.3118 8.7327 97.5458 8.5347 97.8038 8.3787C98.0618 8.2227 98.3348 8.1087 98.6228 8.0367C98.9168 7.9647 99.2138 7.9287 99.5138 7.9287C99.9938 7.9287 100.42 8.0067 100.792 8.1627C101.17 8.3127 101.488 8.5347 101.746 8.8287C102.01 9.1227 102.211 9.4857 102.349 9.9177C102.487 10.3437 102.556 10.8327 102.556 11.3847V17.1897H100.954V11.3847C100.954 10.6707 100.798 10.1307 100.486 9.7647C100.174 9.3927 99.7208 9.2067 99.1268 9.2067C98.8628 9.2067 98.6108 9.2547 98.3708 9.3507C98.1368 9.4407 97.9298 9.5757 97.7498 9.7557C97.5698 9.9357 97.4258 10.1637 97.3178 10.4397C97.2158 10.7097 97.1648 11.0247 97.1648 11.3847V17.1897H95.5628V11.3847C95.5628 10.6527 95.4158 10.1067 95.1218 9.7467C94.8278 9.3867 94.3988 9.2067 93.8348 9.2067C93.4388 9.2067 93.0698 9.3147 92.7278 9.5307C92.3918 9.7407 92.0828 10.0287 91.8008 10.3947V17.1897H90.1988Z" fill="#545454"/>
<path d="M9.94244 0.422852C4.45421 0.422852 0 5.11375 0 10.8936C0 16.6735 4.45421 21.3644 9.94244 21.3644C15.4307 21.3644 19.8849 16.6735 19.8849 10.8936C19.8849 5.11375 15.4307 0.422852 9.94244 0.422852ZM14.5557 7.54297C14.4066 9.19735 13.7603 13.2181 13.4322 15.0714C13.293 15.8567 13.0146 16.1185 12.7561 16.1499C12.1795 16.2023 11.742 15.752 11.1852 15.3646C10.3103 14.7573 9.81318 14.3804 8.96808 13.794C7.98378 13.1134 8.62009 12.7365 9.18681 12.1292C9.33595 11.9721 11.8812 9.53241 11.9309 9.31252C11.9378 9.27922 11.9369 9.24464 11.9282 9.2118C11.9196 9.17895 11.9034 9.14883 11.8812 9.12405C11.8216 9.0717 11.742 9.09264 11.6724 9.10311C11.5829 9.12405 10.191 10.0978 7.47671 12.0244C7.07902 12.3072 6.72109 12.4537 6.40293 12.4433C6.045 12.4328 5.36892 12.2339 4.86185 12.0559C4.23548 11.8464 3.7483 11.7313 3.78807 11.3648C3.80795 11.1763 4.05651 10.9878 4.52381 10.7889C7.427 9.45911 9.35583 8.57957 10.3202 8.16074C13.0842 6.94613 13.651 6.73672 14.0288 6.73672C14.1083 6.73672 14.2972 6.75766 14.4165 6.86237C14.516 6.94613 14.5458 7.06131 14.5557 7.14508C14.5458 7.2079 14.5657 7.39638 14.5557 7.54297Z" fill="#545454"/>
</svg>
