<svg width="18" height="19" viewBox="0 0 18 19" fill="none" xmlns="http://www.w3.org/2000/svg">
<g clip-path="url(#clip0_4963_871)">
<path d="M12.755 1.073H1.91233C1.20783 1.073 0.636719 1.64411 0.636719 2.3486V13.1913C0.636719 13.8958 1.20783 14.4669 1.91233 14.4669H12.755C13.4595 14.4669 14.0306 13.8958 14.0306 13.1913V2.3486C14.0306 1.64411 13.4595 1.073 12.755 1.073Z" stroke="#C9C9C9" stroke-width="1.27561" stroke-linecap="round" stroke-linejoin="round"/>
<path d="M17.2209 4.89966V16.3801C17.2209 16.7184 17.0865 17.0429 16.8473 17.2821C16.6081 17.5213 16.2836 17.6557 15.9453 17.6557H4.46484" stroke="#C9C9C9" stroke-width="1.27561" stroke-linecap="round" stroke-linejoin="round"/>
<path d="M4.78316 10.181V5.35916C4.78219 5.27683 4.80337 5.19576 4.84449 5.12442C4.8856 5.05309 4.94513 4.99413 5.01686 4.9537C5.08859 4.91327 5.16986 4.89288 5.25217 4.89464C5.33449 4.8964 5.41481 4.92026 5.48474 4.96372L9.65597 7.37462C9.72474 7.41521 9.78172 7.47304 9.8213 7.54239C9.8609 7.61173 9.88172 7.6902 9.88172 7.77006C9.88172 7.84991 9.8609 7.92837 9.8213 7.99773C9.78172 8.06707 9.72474 8.12489 9.65597 8.16549L5.48474 10.6402C5.41014 10.6881 5.32325 10.7134 5.23458 10.713C5.14591 10.7126 5.05926 10.6866 4.98507 10.638C4.91088 10.5895 4.85233 10.5205 4.8165 10.4394C4.78067 10.3582 4.7691 10.2685 4.78316 10.181Z" stroke="#C9C9C9" stroke-width="1.27561" stroke-linecap="round" stroke-linejoin="round"/>
</g>
<defs>
<clipPath id="clip0_4963_871">
<rect width="17.8585" height="17.8585" fill="white" transform="translate(0 0.435059)"/>
</clipPath>
</defs>
</svg>
