<svg width="30" height="30" viewBox="0 0 30 30" fill="none" xmlns="http://www.w3.org/2000/svg">
<path d="M25.4497 4.73334C24.0968 3.3667 22.4854 2.28312 20.7093 1.54581C18.9333 0.808508 17.0282 0.432231 15.1053 0.438931C7.04808 0.438931 0.481335 7.00599 0.481335 15.0635C0.481335 17.6461 1.16015 20.1549 2.42922 22.3685L0.363281 29.9538L8.11057 27.9173C10.2503 29.0831 12.6556 29.7029 15.1053 29.7029C23.1624 29.7029 29.7292 23.1359 29.7292 15.0783C29.7292 11.1676 28.2092 7.49299 25.4497 4.73334ZM15.1053 27.2237C12.9213 27.2237 10.7815 26.6334 8.90743 25.5266L8.46473 25.2609L3.86063 26.471L5.08544 21.9848L4.7903 21.5273C3.57692 19.5896 2.93264 17.3498 2.93095 15.0635C2.93095 8.36367 8.39095 2.90342 15.0905 2.90342C18.337 2.90342 21.3916 4.17256 23.6789 6.47472C24.8115 7.60214 25.709 8.94314 26.3195 10.42C26.93 11.8969 27.2413 13.4802 27.2353 15.0783C27.2648 21.7782 21.8048 27.2237 15.1053 27.2237ZM21.7753 18.1331C21.4064 17.956 19.6061 17.0706 19.2814 16.9377C18.942 16.8197 18.7059 16.7607 18.455 17.1148C18.2042 17.4838 17.5106 18.3102 17.304 18.5463C17.0974 18.7972 16.8761 18.8267 16.5072 18.6348C16.1382 18.4578 14.9577 18.0593 13.5706 16.8197C12.4786 15.8457 11.7555 14.6503 11.5341 14.2814C11.3275 13.9125 11.5046 13.7206 11.6965 13.5288C11.8588 13.3664 12.0654 13.1008 12.2425 12.8942C12.4195 12.6876 12.4933 12.5253 12.6114 12.2892C12.7294 12.0383 12.6704 11.8317 12.5819 11.6546C12.4933 11.4775 11.7555 9.67709 11.4603 8.93921C11.1652 8.23086 10.8553 8.3194 10.634 8.30464H9.92565C9.67478 8.30464 9.29111 8.39319 8.9517 8.76213C8.62706 9.13106 7.68262 10.0165 7.68262 11.8169C7.68262 13.6173 8.99597 15.3587 9.17305 15.5948C9.35014 15.8457 11.7555 19.5351 15.4152 21.1141C16.2858 21.4978 16.9646 21.7192 17.4959 21.8815C18.3665 22.1619 19.1634 22.1176 19.7979 22.0291C20.5062 21.9258 21.9671 21.1436 22.2623 20.2877C22.5722 19.4318 22.5722 18.7086 22.4689 18.5463C22.3656 18.384 22.1442 18.3102 21.7753 18.1331Z" fill="#272727"/>
</svg>
