<svg width="116" height="21" viewBox="0 0 116 21" fill="none" xmlns="http://www.w3.org/2000/svg">
<path d="M17.4509 2.98272C16.5097 2.03209 15.3888 1.27836 14.1533 0.765488C12.9178 0.252621 11.5926 -0.00911554 10.2549 -0.00445545C4.65014 -0.00445545 0.0821219 4.56357 0.0821219 10.1684C0.0821219 11.9648 0.554321 13.7099 1.43713 15.2497L0 20.526L5.38924 19.1094C6.87769 19.9203 8.55092 20.3515 10.2549 20.3515C15.8598 20.3515 20.4278 15.7835 20.4278 10.1786C20.4278 7.45836 19.3705 4.90232 17.4509 2.98272ZM10.2549 18.6269C8.73569 18.6269 7.24724 18.2163 5.94356 17.4464L5.6356 17.2616L2.43286 18.1034L3.28487 14.9828L3.07956 14.6645C2.2355 13.3167 1.78732 11.7587 1.78615 10.1684C1.78615 5.50797 5.58427 1.70984 10.2447 1.70984C12.503 1.70984 14.6279 2.59265 16.219 4.19402C17.0069 4.97825 17.6312 5.91104 18.0559 6.93835C18.4805 7.96565 18.6971 9.06703 18.6929 10.1786C18.7135 14.8391 14.9154 18.6269 10.2549 18.6269ZM14.8948 12.3035C14.6382 12.1804 13.3858 11.5644 13.16 11.4721C12.9239 11.3899 12.7597 11.3489 12.5851 11.5952C12.4106 11.8519 11.9282 12.4267 11.7845 12.591C11.6407 12.7655 11.4868 12.786 11.2301 12.6526C10.9735 12.5294 10.1523 12.2522 9.18736 11.3899C8.42774 10.7124 7.92474 9.88095 7.77076 9.62432C7.62705 9.36769 7.75023 9.23424 7.88368 9.10079C7.9966 8.98788 8.14031 8.8031 8.26349 8.65939C8.38668 8.51568 8.438 8.40276 8.52013 8.23852C8.60225 8.06401 8.56119 7.9203 8.49959 7.79711C8.438 7.67393 7.92474 6.42157 7.71944 5.90831C7.51413 5.41558 7.29856 5.47717 7.14459 5.46691H6.65186C6.47735 5.46691 6.21045 5.5285 5.97435 5.78513C5.74852 6.04176 5.09154 6.65767 5.09154 7.91003C5.09154 9.16239 6.00515 10.3737 6.12833 10.5379C6.25151 10.7124 7.92474 13.2787 10.4705 14.3771C11.0762 14.644 11.5484 14.798 11.9179 14.9109C12.5236 15.1059 13.0779 15.0752 13.5193 15.0136C14.012 14.9417 15.0283 14.3976 15.2336 13.8023C15.4491 13.2069 15.4491 12.7039 15.3773 12.591C15.3054 12.4781 15.1515 12.4267 14.8948 12.3035Z" fill="#70A2B7"/>
<path d="M32.0694 3.45633H33.5184C33.6744 3.45633 33.8034 3.49533 33.9054 3.57333C34.0074 3.65133 34.0764 3.75033 34.1124 3.87033L36.7764 12.8343C36.8244 12.9963 36.8664 13.1703 36.9024 13.3563C36.9444 13.5423 36.9834 13.7373 37.0194 13.9413C37.0614 13.7373 37.1034 13.5423 37.1454 13.3563C37.1874 13.1643 37.2354 12.9903 37.2894 12.8343L40.3224 3.87033C40.3584 3.76833 40.4274 3.67533 40.5294 3.59133C40.6374 3.50133 40.7664 3.45633 40.9164 3.45633H41.4204C41.5764 3.45633 41.7024 3.49533 41.7984 3.57333C41.9004 3.65133 41.9724 3.75033 42.0144 3.87033L45.0294 12.8343C45.1374 13.1463 45.2334 13.5033 45.3174 13.9053C45.3534 13.7073 45.3864 13.5183 45.4164 13.3383C45.4464 13.1583 45.4854 12.9903 45.5334 12.8343L48.2064 3.87033C48.2364 3.76233 48.3024 3.66633 48.4044 3.58233C48.5124 3.49833 48.6414 3.45633 48.7914 3.45633H50.1504L46.1274 16.3533H44.5614L41.2944 6.51633C41.2284 6.33033 41.1684 6.11433 41.1144 5.86833C41.0844 5.98833 41.0544 6.10533 41.0244 6.21933C41.0004 6.32733 40.9734 6.42633 40.9434 6.51633L37.6584 16.3533H36.0924L32.0694 3.45633ZM51.5913 16.3533V3.09633H53.1933V8.46033C53.5833 8.04633 54.0153 7.71633 54.4893 7.47033C54.9633 7.21833 55.5093 7.09233 56.1273 7.09233C56.6253 7.09233 57.0633 7.17633 57.4413 7.34433C57.8253 7.50633 58.1433 7.74033 58.3953 8.04633C58.6533 8.34633 58.8483 8.70933 58.9803 9.13533C59.1123 9.56133 59.1783 10.0323 59.1783 10.5483V16.3533H57.5763V10.5483C57.5763 9.85833 57.4173 9.32433 57.0993 8.94633C56.7873 8.56233 56.3073 8.37033 55.6593 8.37033C55.1853 8.37033 54.7413 8.48433 54.3273 8.71233C53.9193 8.94033 53.5413 9.24933 53.1933 9.63933V16.3533H51.5913ZM68.2893 16.3533H67.5783C67.4223 16.3533 67.2963 16.3293 67.2003 16.2813C67.1043 16.2333 67.0413 16.1313 67.0113 15.9753L66.8313 15.1293C66.5913 15.3453 66.3573 15.5403 66.1293 15.7143C65.9013 15.8823 65.6613 16.0263 65.4093 16.1463C65.1573 16.2603 64.8873 16.3473 64.5993 16.4073C64.3173 16.4673 64.0023 16.4973 63.6543 16.4973C63.3003 16.4973 62.9673 16.4493 62.6553 16.3533C62.3493 16.2513 62.0823 16.1013 61.8543 15.9033C61.6263 15.7053 61.4433 15.4563 61.3053 15.1563C61.1733 14.8503 61.1073 14.4903 61.1073 14.0763C61.1073 13.7163 61.2063 13.3713 61.4043 13.0413C61.6023 12.7053 61.9203 12.4083 62.3583 12.1503C62.8023 11.8923 63.3813 11.6823 64.0953 11.5203C64.8093 11.3523 65.6823 11.2563 66.7143 11.2323V10.5213C66.7143 9.81333 66.5613 9.27933 66.2553 8.91933C65.9553 8.55333 65.5083 8.37033 64.9143 8.37033C64.5243 8.37033 64.1943 8.42133 63.9243 8.52333C63.6603 8.61933 63.4293 8.73033 63.2313 8.85633C63.0393 8.97633 62.8713 9.08733 62.7273 9.18933C62.5893 9.28533 62.4513 9.33333 62.3133 9.33333C62.2053 9.33333 62.1093 9.30633 62.0253 9.25233C61.9473 9.19233 61.8843 9.12033 61.8363 9.03633L61.5483 8.52333C62.0523 8.03733 62.5953 7.67433 63.1773 7.43433C63.7593 7.19433 64.4043 7.07433 65.1123 7.07433C65.6223 7.07433 66.0753 7.15833 66.4713 7.32633C66.8673 7.49433 67.2003 7.72833 67.4703 8.02833C67.7403 8.32833 67.9443 8.69133 68.0823 9.11733C68.2203 9.54333 68.2893 10.0113 68.2893 10.5213V16.3533ZM64.1313 15.3723C64.4133 15.3723 64.6713 15.3453 64.9053 15.2913C65.1393 15.2313 65.3583 15.1503 65.5623 15.0483C65.7723 14.9403 65.9703 14.8113 66.1563 14.6613C66.3483 14.5113 66.5343 14.3403 66.7143 14.1483V12.2493C65.9763 12.2733 65.3493 12.3333 64.8333 12.4293C64.3173 12.5193 63.8973 12.6393 63.5733 12.7893C63.2493 12.9393 63.0123 13.1163 62.8623 13.3203C62.7183 13.5243 62.6463 13.7523 62.6463 14.0043C62.6463 14.2443 62.6853 14.4513 62.7633 14.6253C62.8413 14.7993 62.9463 14.9433 63.0783 15.0573C63.2103 15.1653 63.3663 15.2463 63.5463 15.3003C63.7263 15.3483 63.9213 15.3723 64.1313 15.3723ZM73.4793 16.4973C72.7593 16.4973 72.2043 16.2963 71.8143 15.8943C71.4303 15.4923 71.2383 14.9133 71.2383 14.1573V8.57733H70.1403C70.0443 8.57733 69.9633 8.55033 69.8973 8.49633C69.8313 8.43633 69.7983 8.34633 69.7983 8.22633V7.58733L71.2923 7.39833L71.6613 4.58133C71.6733 4.49133 71.7123 4.41933 71.7783 4.36533C71.8443 4.30533 71.9283 4.27533 72.0303 4.27533H72.8403V7.41633H75.4503V8.57733H72.8403V14.0493C72.8403 14.4333 72.9333 14.7183 73.1193 14.9043C73.3053 15.0903 73.5453 15.1833 73.8393 15.1833C74.0073 15.1833 74.1513 15.1623 74.2713 15.1203C74.3973 15.0723 74.5053 15.0213 74.5953 14.9673C74.6853 14.9133 74.7603 14.8653 74.8203 14.8233C74.8863 14.7753 74.9433 14.7513 74.9913 14.7513C75.0753 14.7513 75.1503 14.8023 75.2163 14.9043L75.6843 15.6693C75.4083 15.9273 75.0753 16.1313 74.6853 16.2813C74.2953 16.4253 73.8933 16.4973 73.4793 16.4973ZM82.6512 8.73933C82.5792 8.87133 82.4682 8.93733 82.3182 8.93733C82.2282 8.93733 82.1262 8.90433 82.0122 8.83833C81.8982 8.77233 81.7572 8.70033 81.5892 8.62233C81.4272 8.53833 81.2322 8.46333 81.0042 8.39733C80.7762 8.32533 80.5062 8.28933 80.1942 8.28933C79.9242 8.28933 79.6812 8.32533 79.4652 8.39733C79.2492 8.46333 79.0632 8.55633 78.9072 8.67633C78.7572 8.79633 78.6402 8.93733 78.5562 9.09933C78.4782 9.25533 78.4392 9.42633 78.4392 9.61233C78.4392 9.84633 78.5052 10.0413 78.6372 10.1973C78.7752 10.3533 78.9552 10.4883 79.1772 10.6023C79.3992 10.7163 79.6512 10.8183 79.9332 10.9083C80.2152 10.9923 80.5032 11.0853 80.7972 11.1873C81.0972 11.2833 81.3882 11.3913 81.6702 11.5113C81.9522 11.6313 82.2042 11.7813 82.4262 11.9613C82.6482 12.1413 82.8252 12.3633 82.9572 12.6273C83.0952 12.8853 83.1642 13.1973 83.1642 13.5633C83.1642 13.9833 83.0892 14.3733 82.9392 14.7333C82.7892 15.0873 82.5672 15.3963 82.2732 15.6603C81.9792 15.9183 81.6192 16.1223 81.1932 16.2723C80.7672 16.4223 80.2752 16.4973 79.7172 16.4973C79.0812 16.4973 78.5052 16.3953 77.9892 16.1913C77.4732 15.9813 77.0352 15.7143 76.6752 15.3903L77.0532 14.7783C77.1012 14.7003 77.1582 14.6403 77.2242 14.5983C77.2902 14.5563 77.3772 14.5353 77.4852 14.5353C77.5932 14.5353 77.7072 14.5773 77.8272 14.6613C77.9472 14.7453 78.0912 14.8383 78.2592 14.9403C78.4332 15.0423 78.6402 15.1353 78.8802 15.2193C79.1262 15.3033 79.4322 15.3453 79.7982 15.3453C80.1102 15.3453 80.3832 15.3063 80.6172 15.2283C80.8512 15.1443 81.0462 15.0333 81.2022 14.8953C81.3582 14.7573 81.4722 14.5983 81.5442 14.4183C81.6222 14.2383 81.6612 14.0463 81.6612 13.8423C81.6612 13.5903 81.5922 13.3833 81.4542 13.2213C81.3222 13.0533 81.1452 12.9123 80.9232 12.7983C80.7012 12.6783 80.4462 12.5763 80.1582 12.4923C79.8762 12.4023 79.5852 12.3093 79.2852 12.2133C78.9912 12.1173 78.7002 12.0093 78.4122 11.8893C78.1302 11.7633 77.8782 11.6073 77.6562 11.4213C77.4342 11.2353 77.2542 11.0073 77.1162 10.7373C76.9842 10.4613 76.9182 10.1283 76.9182 9.73833C76.9182 9.39033 76.9902 9.05733 77.1342 8.73933C77.2782 8.41533 77.4882 8.13333 77.7642 7.89333C78.0402 7.64733 78.3792 7.45233 78.7812 7.30833C79.1832 7.16433 79.6422 7.09233 80.1582 7.09233C80.7582 7.09233 81.2952 7.18833 81.7692 7.38033C82.2492 7.56633 82.6632 7.82433 83.0112 8.15433L82.6512 8.73933ZM91.9319 16.3533H91.2209C91.0649 16.3533 90.9389 16.3293 90.8429 16.2813C90.7469 16.2333 90.6839 16.1313 90.6539 15.9753L90.4739 15.1293C90.2339 15.3453 89.9999 15.5403 89.7719 15.7143C89.5439 15.8823 89.3039 16.0263 89.0519 16.1463C88.7999 16.2603 88.5299 16.3473 88.2419 16.4073C87.9599 16.4673 87.6449 16.4973 87.2969 16.4973C86.9429 16.4973 86.6099 16.4493 86.2979 16.3533C85.9919 16.2513 85.7249 16.1013 85.4969 15.9033C85.2689 15.7053 85.0859 15.4563 84.9479 15.1563C84.8159 14.8503 84.7499 14.4903 84.7499 14.0763C84.7499 13.7163 84.8489 13.3713 85.0469 13.0413C85.2449 12.7053 85.5629 12.4083 86.0009 12.1503C86.4449 11.8923 87.0239 11.6823 87.7379 11.5203C88.4519 11.3523 89.3249 11.2563 90.3569 11.2323V10.5213C90.3569 9.81333 90.2039 9.27933 89.8979 8.91933C89.5979 8.55333 89.1509 8.37033 88.5569 8.37033C88.1669 8.37033 87.8369 8.42133 87.5669 8.52333C87.3029 8.61933 87.0719 8.73033 86.8739 8.85633C86.6819 8.97633 86.5139 9.08733 86.3699 9.18933C86.2319 9.28533 86.0939 9.33333 85.9559 9.33333C85.8479 9.33333 85.7519 9.30633 85.6679 9.25233C85.5899 9.19233 85.5269 9.12033 85.4789 9.03633L85.1909 8.52333C85.6949 8.03733 86.2379 7.67433 86.8199 7.43433C87.4019 7.19433 88.0469 7.07433 88.7549 7.07433C89.2649 7.07433 89.7179 7.15833 90.1139 7.32633C90.5099 7.49433 90.8429 7.72833 91.1129 8.02833C91.3829 8.32833 91.5869 8.69133 91.7249 9.11733C91.8629 9.54333 91.9319 10.0113 91.9319 10.5213V16.3533ZM87.7739 15.3723C88.0559 15.3723 88.3139 15.3453 88.5479 15.2913C88.7819 15.2313 89.0009 15.1503 89.2049 15.0483C89.4149 14.9403 89.6129 14.8113 89.7989 14.6613C89.9909 14.5113 90.1769 14.3403 90.3569 14.1483V12.2493C89.6189 12.2733 88.9919 12.3333 88.4759 12.4293C87.9599 12.5193 87.5399 12.6393 87.2159 12.7893C86.8919 12.9393 86.6549 13.1163 86.5049 13.3203C86.3609 13.5243 86.2889 13.7523 86.2889 14.0043C86.2889 14.2443 86.3279 14.4513 86.4059 14.6253C86.4839 14.7993 86.5889 14.9433 86.7209 15.0573C86.8529 15.1653 87.0089 15.2463 87.1889 15.3003C87.3689 15.3483 87.5639 15.3723 87.7739 15.3723ZM94.3589 19.4403V7.23633H95.3129C95.5409 7.23633 95.6849 7.34733 95.7449 7.56933L95.8799 8.64933C96.2699 8.17533 96.7139 7.79433 97.2119 7.50633C97.7159 7.21833 98.2949 7.07433 98.9489 7.07433C99.4709 7.07433 99.9449 7.17633 100.371 7.38033C100.797 7.57833 101.16 7.87533 101.46 8.27133C101.76 8.66133 101.991 9.14733 102.153 9.72933C102.315 10.3113 102.396 10.9803 102.396 11.7363C102.396 12.4083 102.306 13.0353 102.126 13.6173C101.946 14.1933 101.688 14.6943 101.352 15.1203C101.016 15.5403 100.602 15.8733 100.11 16.1193C99.6239 16.3593 99.0749 16.4793 98.4629 16.4793C97.8989 16.4793 97.4159 16.3863 97.0139 16.2003C96.6179 16.0143 96.2669 15.7503 95.9609 15.4083V19.4403H94.3589ZM98.4179 8.37033C97.8959 8.37033 97.4369 8.49033 97.0409 8.73033C96.6509 8.97033 96.2909 9.30933 95.9609 9.74733V14.1573C96.2549 14.5533 96.5759 14.8323 96.9239 14.9943C97.2779 15.1563 97.6709 15.2373 98.1029 15.2373C98.9489 15.2373 99.5999 14.9343 100.056 14.3283C100.512 13.7223 100.74 12.8583 100.74 11.7363C100.74 11.1423 100.686 10.6323 100.578 10.2063C100.476 9.78033 100.326 9.43233 100.128 9.16233C99.9299 8.88633 99.6869 8.68533 99.3989 8.55933C99.1109 8.43333 98.7839 8.37033 98.4179 8.37033ZM104.291 19.4403V7.23633H105.245C105.473 7.23633 105.617 7.34733 105.677 7.56933L105.812 8.64933C106.202 8.17533 106.646 7.79433 107.144 7.50633C107.648 7.21833 108.227 7.07433 108.881 7.07433C109.403 7.07433 109.877 7.17633 110.303 7.38033C110.729 7.57833 111.092 7.87533 111.392 8.27133C111.692 8.66133 111.923 9.14733 112.085 9.72933C112.247 10.3113 112.328 10.9803 112.328 11.7363C112.328 12.4083 112.238 13.0353 112.058 13.6173C111.878 14.1933 111.62 14.6943 111.284 15.1203C110.948 15.5403 110.534 15.8733 110.042 16.1193C109.556 16.3593 109.007 16.4793 108.395 16.4793C107.831 16.4793 107.348 16.3863 106.946 16.2003C106.55 16.0143 106.199 15.7503 105.893 15.4083V19.4403H104.291ZM108.35 8.37033C107.828 8.37033 107.369 8.49033 106.973 8.73033C106.583 8.97033 106.223 9.30933 105.893 9.74733V14.1573C106.187 14.5533 106.508 14.8323 106.856 14.9943C107.21 15.1563 107.603 15.2373 108.035 15.2373C108.881 15.2373 109.532 14.9343 109.988 14.3283C110.444 13.7223 110.672 12.8583 110.672 11.7363C110.672 11.1423 110.618 10.6323 110.51 10.2063C110.408 9.78033 110.258 9.43233 110.06 9.16233C109.862 8.88633 109.619 8.68533 109.331 8.55933C109.043 8.43333 108.716 8.37033 108.35 8.37033Z" fill="#70A2B7"/>
</svg>
