<svg width="101" height="24" viewBox="0 0 101 24" fill="none" xmlns="http://www.w3.org/2000/svg">
<path d="M37.7039 14.1274V19.2574H35.9669V14.1274L31.2419 6.36038H32.7719C32.9279 6.36038 33.0509 6.39938 33.1409 6.47738C33.2309 6.55538 33.3089 6.65138 33.3749 6.76539L36.3269 11.7784C36.4469 11.9884 36.5459 12.1864 36.6239 12.3724C36.7079 12.5584 36.7829 12.7414 36.8489 12.9214C36.9149 12.7354 36.9869 12.5494 37.0649 12.3634C37.1429 12.1774 37.2419 11.9824 37.3619 11.7784L40.3049 6.76539C40.3589 6.66938 40.4309 6.57938 40.5209 6.49538C40.6169 6.40538 40.7399 6.36038 40.8899 6.36038H42.4379L37.7039 14.1274ZM46.0528 9.99638C46.7188 9.99638 47.3188 10.1074 47.8528 10.3294C48.3928 10.5514 48.8488 10.8664 49.2208 11.2744C49.5988 11.6824 49.8868 12.1774 50.0848 12.7594C50.2888 13.3354 50.3908 13.9804 50.3908 14.6944C50.3908 15.4144 50.2888 16.0624 50.0848 16.6384C49.8868 17.2144 49.5988 17.7064 49.2208 18.1144C48.8488 18.5224 48.3928 18.8374 47.8528 19.0594C47.3188 19.2754 46.7188 19.3834 46.0528 19.3834C45.3868 19.3834 44.7838 19.2754 44.2438 19.0594C43.7098 18.8374 43.2538 18.5224 42.8758 18.1144C42.4978 17.7064 42.2068 17.2144 42.0028 16.6384C41.7988 16.0624 41.6968 15.4144 41.6968 14.6944C41.6968 13.9804 41.7988 13.3354 42.0028 12.7594C42.2068 12.1774 42.4978 11.6824 42.8758 11.2744C43.2538 10.8664 43.7098 10.5514 44.2438 10.3294C44.7838 10.1074 45.3868 9.99638 46.0528 9.99638ZM46.0528 18.1324C46.9528 18.1324 47.6248 17.8324 48.0688 17.2324C48.5128 16.6264 48.7348 15.7834 48.7348 14.7034C48.7348 13.6174 48.5128 12.7714 48.0688 12.1654C47.6248 11.5594 46.9528 11.2564 46.0528 11.2564C45.5968 11.2564 45.2008 11.3344 44.8648 11.4904C44.5288 11.6464 44.2468 11.8714 44.0188 12.1654C43.7968 12.4594 43.6288 12.8224 43.5148 13.2544C43.4068 13.6804 43.3528 14.1634 43.3528 14.7034C43.3528 15.2434 43.4068 15.7264 43.5148 16.1524C43.6288 16.5784 43.7968 16.9384 44.0188 17.2324C44.2468 17.5204 44.5288 17.7424 44.8648 17.8984C45.2008 18.0544 45.5968 18.1324 46.0528 18.1324ZM53.7508 10.1404V15.9544C53.7508 16.6444 53.9098 17.1784 54.2278 17.5564C54.5458 17.9344 55.0258 18.1234 55.6678 18.1234C56.1358 18.1234 56.5768 18.0124 56.9908 17.7904C57.4048 17.5684 57.7858 17.2594 58.1338 16.8634V10.1404H59.7358V19.2574H58.7818C58.5538 19.2574 58.4098 19.1464 58.3498 18.9244L58.2238 17.9434C57.8278 18.3814 57.3838 18.7354 56.8918 19.0054C56.3998 19.2694 55.8358 19.4014 55.1998 19.4014C54.7018 19.4014 54.2608 19.3204 53.8768 19.1584C53.4988 18.9904 53.1808 18.7564 52.9228 18.4564C52.6648 18.1564 52.4698 17.7934 52.3378 17.3674C52.2118 16.9414 52.1488 16.4704 52.1488 15.9544V10.1404H53.7508ZM65.1297 19.4014C64.4097 19.4014 63.8547 19.2004 63.4647 18.7984C63.0807 18.3964 62.8887 17.8174 62.8887 17.0614V11.4814H61.7907C61.6947 11.4814 61.6137 11.4544 61.5477 11.4004C61.4817 11.3404 61.4487 11.2504 61.4487 11.1304V10.4914L62.9427 10.3024L63.3117 7.48538C63.3237 7.39538 63.3627 7.32338 63.4287 7.26939C63.4947 7.20939 63.5787 7.17939 63.6807 7.17939H64.4907V10.3204H67.1007V11.4814H64.4907V16.9534C64.4907 17.3374 64.5837 17.6224 64.7697 17.8084C64.9557 17.9944 65.1957 18.0874 65.4897 18.0874C65.6577 18.0874 65.8017 18.0664 65.9217 18.0244C66.0477 17.9764 66.1557 17.9254 66.2457 17.8714C66.3357 17.8174 66.4107 17.7694 66.4707 17.7274C66.5367 17.6794 66.5937 17.6554 66.6417 17.6554C66.7257 17.6554 66.8007 17.7064 66.8667 17.8084L67.3347 18.5734C67.0587 18.8314 66.7257 19.0354 66.3357 19.1854C65.9457 19.3294 65.5437 19.4014 65.1297 19.4014ZM70.4676 10.1404V15.9544C70.4676 16.6444 70.6266 17.1784 70.9446 17.5564C71.2626 17.9344 71.7426 18.1234 72.3846 18.1234C72.8526 18.1234 73.2936 18.0124 73.7076 17.7904C74.1216 17.5684 74.5026 17.2594 74.8506 16.8634V10.1404H76.4526V19.2574H75.4986C75.2706 19.2574 75.1266 19.1464 75.0666 18.9244L74.9406 17.9434C74.5446 18.3814 74.1006 18.7354 73.6086 19.0054C73.1166 19.2694 72.5526 19.4014 71.9166 19.4014C71.4186 19.4014 70.9776 19.3204 70.5936 19.1584C70.2156 18.9904 69.8976 18.7564 69.6396 18.4564C69.3816 18.1564 69.1866 17.7934 69.0546 17.3674C68.9286 16.9414 68.8656 16.4704 68.8656 15.9544V10.1404H70.4676ZM79.1375 19.2574V6.00038H80.7485V11.4544C81.1265 11.0164 81.5585 10.6654 82.0445 10.4014C82.5365 10.1314 83.0975 9.99638 83.7275 9.99638C84.2555 9.99638 84.7325 10.0954 85.1585 10.2934C85.5845 10.4914 85.9475 10.7884 86.2475 11.1844C86.5475 11.5744 86.7785 12.0604 86.9405 12.6424C87.1025 13.2184 87.1835 13.8844 87.1835 14.6404C87.1835 15.3124 87.0935 15.9394 86.9135 16.5214C86.7335 17.0974 86.4725 17.5984 86.1305 18.0244C85.7945 18.4444 85.3805 18.7774 84.8885 19.0234C84.4025 19.2634 83.8535 19.3834 83.2415 19.3834C82.6535 19.3834 82.1525 19.2694 81.7385 19.0414C81.3305 18.8134 80.9735 18.4954 80.6675 18.0874L80.5865 18.9154C80.5385 19.1434 80.4005 19.2574 80.1725 19.2574H79.1375ZM83.2055 11.2744C82.6835 11.2744 82.2245 11.3944 81.8285 11.6344C81.4385 11.8744 81.0785 12.2134 80.7485 12.6514V17.0614C81.0365 17.4574 81.3545 17.7364 81.7025 17.8984C82.0565 18.0604 82.4495 18.1414 82.8815 18.1414C83.7335 18.1414 84.3875 17.8384 84.8435 17.2324C85.2995 16.6264 85.5275 15.7624 85.5275 14.6404C85.5275 14.0464 85.4735 13.5364 85.3655 13.1104C85.2635 12.6844 85.1135 12.3364 84.9155 12.0664C84.7175 11.7904 84.4745 11.5894 84.1865 11.4634C83.8985 11.3374 83.5715 11.2744 83.2055 11.2744ZM92.7472 9.99638C93.2932 9.99638 93.7972 10.0894 94.2592 10.2754C94.7212 10.4554 95.1202 10.7194 95.4562 11.0674C95.7922 11.4094 96.0532 11.8354 96.2392 12.3454C96.4312 12.8494 96.5272 13.4254 96.5272 14.0734C96.5272 14.3254 96.5002 14.4934 96.4462 14.5774C96.3922 14.6614 96.2902 14.7034 96.1402 14.7034H90.0742C90.0862 15.2794 90.1642 15.7804 90.3082 16.2064C90.4522 16.6324 90.6502 16.9894 90.9022 17.2774C91.1542 17.5594 91.4542 17.7724 91.8022 17.9164C92.1502 18.0544 92.5402 18.1234 92.9722 18.1234C93.3742 18.1234 93.7192 18.0784 94.0072 17.9884C94.3012 17.8924 94.5532 17.7904 94.7632 17.6824C94.9732 17.5744 95.1472 17.4754 95.2852 17.3854C95.4292 17.2894 95.5522 17.2414 95.6542 17.2414C95.7862 17.2414 95.8882 17.2924 95.9602 17.3944L96.4102 17.9794C96.2122 18.2194 95.9752 18.4294 95.6992 18.6094C95.4232 18.7834 95.1262 18.9274 94.8082 19.0414C94.4962 19.1554 94.1722 19.2394 93.8362 19.2934C93.5002 19.3534 93.1672 19.3834 92.8372 19.3834C92.2072 19.3834 91.6252 19.2784 91.0912 19.0684C90.5632 18.8524 90.1042 18.5404 89.7142 18.1324C89.3302 17.7184 89.0302 17.2084 88.8142 16.6024C88.5982 15.9964 88.4902 15.3004 88.4902 14.5144C88.4902 13.8784 88.5862 13.2844 88.7782 12.7324C88.9762 12.1804 89.2582 11.7034 89.6242 11.3014C89.9902 10.8934 90.4372 10.5754 90.9652 10.3474C91.4932 10.1134 92.0872 9.99638 92.7472 9.99638ZM92.7832 11.1754C92.0092 11.1754 91.4002 11.4004 90.9562 11.8504C90.5122 12.2944 90.2362 12.9124 90.1282 13.7044H95.0872C95.0872 13.3324 95.0362 12.9934 94.9342 12.6874C94.8322 12.3754 94.6822 12.1084 94.4842 11.8864C94.2862 11.6584 94.0432 11.4844 93.7552 11.3644C93.4732 11.2384 93.1492 11.1754 92.7832 11.1754Z" fill="#545454"/>
<path d="M12.2108 16.907V19.6363C12.2108 20.2141 12.0426 20.503 11.7063 20.503C11.508 20.503 11.3139 20.4081 11.1242 20.2184V16.3249C11.3139 16.1352 11.508 16.0403 11.7063 16.0403C12.0426 16.0403 12.2108 16.3292 12.2108 16.907ZM16.5829 16.9199V17.5149H15.4187V16.9199C15.4187 16.3335 15.6127 16.0403 16.0008 16.0403C16.3888 16.0403 16.5829 16.3335 16.5829 16.9199ZM4.08751 14.1H5.47157V12.8841H1.4358V14.1H2.79399V21.4602H4.08751V14.1ZM7.81283 21.4602H8.96406V15.0702H7.81283V19.9597C7.55413 20.3219 7.30836 20.503 7.07553 20.503C6.92031 20.503 6.82976 20.4124 6.80389 20.2313C6.79527 20.2055 6.79096 20.0545 6.79096 19.7786V15.0702H5.63973V20.1278C5.63973 20.5504 5.67422 20.8651 5.74321 21.0721C5.84669 21.3912 6.09677 21.5507 6.49345 21.5507C6.90737 21.5507 7.34717 21.2877 7.81283 20.7617V21.4602ZM13.362 19.5458V16.9975C13.362 16.368 13.3232 15.9412 13.2456 15.7169C13.099 15.234 12.7929 14.9926 12.3272 14.9926C11.896 14.9926 11.495 15.2254 11.1242 15.6911V12.8841H9.973V21.4602H11.1242V20.8393C11.5123 21.3136 11.9133 21.5507 12.3272 21.5507C12.7929 21.5507 13.099 21.3136 13.2456 20.8393C13.3232 20.6064 13.362 20.1753 13.362 19.5458ZM17.7341 19.4164V19.2482H16.557C16.557 19.688 16.5484 19.9511 16.5311 20.0373C16.4708 20.3477 16.2983 20.503 16.0137 20.503C15.617 20.503 15.4187 20.2055 15.4187 19.6104V18.4851H17.7341V17.1527C17.7341 16.4715 17.6177 15.9713 17.3848 15.6523C17.0485 15.2125 16.5915 14.9926 16.0137 14.9926C15.4273 14.9926 14.966 15.2125 14.6297 15.6523C14.3882 15.9713 14.2675 16.4715 14.2675 17.1527V19.3905C14.2675 20.0718 14.3925 20.5719 14.6426 20.891C14.9789 21.3308 15.4446 21.5507 16.0396 21.5507C16.6605 21.5507 17.1261 21.3222 17.4366 20.8651C17.5918 20.6323 17.6824 20.3995 17.7082 20.1666C17.7255 20.089 17.7341 19.839 17.7341 19.4164ZM9.86952 7.60658V4.8902C9.86952 4.29518 9.68412 3.99767 9.31331 3.99767C8.9425 3.99767 8.7571 4.29518 8.7571 4.8902V7.60658C8.7571 8.21023 8.9425 8.51205 9.31331 8.51205C9.68412 8.51205 9.86952 8.21023 9.86952 7.60658ZM19.1699 17.3209C19.1699 19.3388 19.0578 20.8479 18.8336 21.8482C18.7129 22.357 18.4628 22.7839 18.0833 23.1288C17.7039 23.4737 17.2641 23.6721 16.764 23.7238C15.1772 23.9049 12.7842 23.9955 9.58495 23.9955C6.38565 23.9955 3.99265 23.9049 2.40594 23.7238C1.90578 23.6721 1.46383 23.4737 1.08009 23.1288C0.696342 22.7839 0.448419 22.357 0.336314 21.8482C0.112105 20.8824 0 19.3733 0 17.3209C0 15.303 0.112105 13.7939 0.336314 12.7936C0.457042 12.2848 0.707122 11.8579 1.08655 11.513C1.46598 11.1681 1.91009 10.9654 2.41887 10.9051C3.99696 10.7326 6.38565 10.6464 9.58495 10.6464C12.7842 10.6464 15.1772 10.7326 16.764 10.9051C17.2641 10.9654 17.7061 11.1681 18.0898 11.513C18.4736 11.8579 18.7215 12.2848 18.8336 12.7936C19.0578 13.7594 19.1699 15.2685 19.1699 17.3209ZM6.26061 0.815613H7.58L6.01485 5.97675V9.48218H4.72133V5.97675C4.6006 5.33861 4.33759 4.42453 3.93229 3.23449C3.61322 2.34628 3.33296 1.53998 3.0915 0.815613H4.46263L5.38102 4.21757L6.26061 0.815613ZM11.0466 5.12303V7.38669C11.0466 8.08519 10.9259 8.59397 10.6844 8.91304C10.3567 9.35283 9.8997 9.57273 9.31331 9.57273C8.73554 9.57273 8.28281 9.35283 7.95512 8.91304C7.71366 8.58535 7.59293 8.07656 7.59293 7.38669V5.12303C7.59293 4.43315 7.71366 3.92868 7.95512 3.60961C8.28281 3.16982 8.73554 2.94992 9.31331 2.94992C9.8997 2.94992 10.3567 3.16982 10.6844 3.60961C10.9259 3.92868 11.0466 4.43315 11.0466 5.12303ZM15.3799 3.02753V9.48218H14.2028V8.77075C13.7458 9.3054 13.3016 9.57273 12.8705 9.57273C12.4738 9.57273 12.2194 9.4132 12.1073 9.09413C12.0383 8.88717 12.0038 8.56379 12.0038 8.12399V3.02753H13.1809V7.77474C13.1809 8.05931 13.1852 8.21023 13.1939 8.22747C13.2197 8.41719 13.3103 8.51205 13.4655 8.51205C13.6983 8.51205 13.9441 8.32664 14.2028 7.95583V3.02753H15.3799Z" fill="#545454"/>
</svg>
